 <!DOCTYPE svg PUBLIC "-//W3C//DTD SVG 1.1//EN" "http://www.w3.org/Graphics/SVG/1.1/DTD/svg11.dtd">
<svg id="b80c91ff-6802-439b-9c29-b1b6dda8e39e" data-name="Layer 1" xmlns="http://www.w3.org/2000/svg" width="865.76" height="682.89" viewBox="0 0 865.76 682.89">
<defs>
<style xmlns="http://www.w3.org/1999/xhtml">*, ::after, ::before { box-sizing: border-box; }
img, svg { vertical-align: middle; }
</style>
<style xmlns="http://www.w3.org/1999/xhtml">*, body, html { -webkit-font-smoothing: antialiased; }
img, svg { max-width: 100%; }
</style>
</defs>
<path d="M655.28,364.48s-1.67,36.56,25,134.67c0,0,8.34,33.08,8.34,52L701.41,644h17.23s10.56-47.7,0-105A100.08,100.08,0,0,1,717,512.64s7.22-97.11,0-149.36l-37.79-11.67Z" fill="#2f2e41" data-secondary="true"/>
<path d="M614.13,358.15,624.71,644s4.45-2.2,17.51,0c0,0,19.73-53.93,13.06-107.28,0,0,6.11-80,13.89-93.92l-8.33-84.61Z" fill="#2f2e41" data-secondary="true"/>
<path d="M614.13,358.15,624.71,644s4.45-2.2,17.51,0c0,0,19.73-53.93,13.06-107.28,0,0,6.11-80,13.89-93.92l-8.33-84.61Z" opacity="0.2"/>
<path d="M681,134.77l-6.36,23.71s17.25,16.11,31.7,2.4l1.71-31Z" fill="#f9b499"/>
<ellipse cx="700.05" cy="92.81" rx="48.74" ry="30.87" transform="translate(372.8 718.58) rotate(-69.94)" fill="#f9b499"/>
<path d="M385.88,646.44s49.6-23.76,95.45,0l4.05-2.48s-21.42-14.19-41-13.36l.28-104.48H424.09v104.2s-34.74,4.73-41.68,16.12Z" fill="#2f2e41" data-secondary="true"/>
<circle cx="485.38" cy="650.2" r="6.23" fill="#2f2e41" data-secondary="true"/>
<circle cx="384.29" cy="650.2" r="6.23" fill="#2f2e41" data-secondary="true"/>
<path d="M362.15,637.83c-1.38-4.58-6.9-9.22-6.9-9.22l-13.33,5.85a67.46,67.46,0,0,0,8,23.93c9.45,10.56,14.18-3.06,14.18-3.06s6.11,13.86,13.33,7.07c0,0,11.86-8.63,4.45-21.8l-4.58-9.89a2,2,0,0,0-2.92-.84Z" fill="#0071f2" data-primary="true"/>
<rect x="34.51" y="412.47" width="546.86" height="10.84" fill="#ccc"/>
<path d="M358.43,526.12H536.35s8.29-169.53,30.89-224.67a32,32,0,0,0,.61-23.11c-3.5-9.57-12.41-19.29-34.28-18.43l-52.8-.05s-16.11,2.28-28.89,30.62c0,0-14.13,26.09-22.79,64.47l-74.73,144.2Z" fill="#2f2e41" data-secondary="true"/>
<path d="M162.25,384.23h60.11a3.27,3.27,0,0,0,3.24-3.64l-12-102a3.27,3.27,0,0,0-3.24-2.88H76.81a3.26,3.26,0,0,0-3.24,3.63l11.76,102a3.26,3.26,0,0,0,3.23,2.89h73.69Z" fill="#2f2e41" data-secondary="true"/>
<path d="M162.25,384.23h60.11a3.27,3.27,0,0,0,3.24-3.64l-12-102a3.27,3.27,0,0,0-3.24-2.88H76.81a3.26,3.26,0,0,0-3.24,3.63l11.76,102a3.26,3.26,0,0,0,3.23,2.89h73.69Z" opacity="0.2"/>
<polygon points="34.41 656.82 27.98 656.39 45.34 421.11 56.18 421.11 34.41 656.82" fill="#ccc"/>
<polygon points="571.78 656.82 578.21 656.39 560.85 421.11 550.01 421.11 571.78 656.82" fill="#ccc"/>
<path d="M133,384.23l3.44,10.94-16.26,17.3H148.3l14.06-14.12-5-14.12h60.11a3.27,3.27,0,0,0,3.24-3.64l-12.05-102a3.27,3.27,0,0,0-3.24-2.88H71.92a3.26,3.26,0,0,0-3.24,3.63l11.76,102a3.26,3.26,0,0,0,3.23,2.89Z" fill="#2f2e41" data-secondary="true"/>
<rect x="147.51" y="409.78" width="29.45" height="2.69" fill="#2f2e41" data-secondary="true"/>
<rect x="186.04" y="407.74" width="74.47" height="4.72" fill="#2f2e41" data-secondary="true"/>
<path d="M296.7,266.13S279.31,226,332.11,217.68c0,0,33.9-11.4,51.69,31.95,0,0,12.22,29.18,12.22,30s5,8.34,16.4,12.51c0,0,18.89,7.5,12.78,30,0,0-2.78,9.17-5.84,12.23,0,0-8.61-7.79-25.56-5.84,0,0-33.87,7.59-41.41-29.95-.17-.86-.34-1.72-.55-2.57-1.09-4.5-5-21.92-5-40.06a6.67,6.67,0,0,0-4.94-6.53c-2-.49-4.33,0-6.41,3,0,0-8.3,11.06-18.19,18.67A14.75,14.75,0,0,0,311.42,284a41,41,0,0,0,2.91,11.47s10.83,27.79,30.84,30c0,0-23.69,10.78-35,29.46,0,0-7.13-3.9-7.32-10.84l1.21-55Z" fill="#2f2e41" data-secondary="true"/>
<path d="M361.41,318.41s-9.44,10.44-20.76,6.12c0,0-20.36-5.73-28.57-36.29,0,0-3.72-9.46,4.19-16.32,0,0,12.78-10.52,19.18-19.51,0,0,4.08-6.11,9.31-1.34a8.24,8.24,0,0,1,2,5.32S348,303,361.41,318.41Z" fill="#f9b499"/>
<path d="M305.43,366.06s2.78-21.95,39.74-40.57c0,0,7.19,1.67,16.24-7.08a31.75,31.75,0,0,0,25.16,10.77s29.12-6.33,39.85,13.06c0,0,35.46,43.92,41.29,70.69,0,0,14.45,33.72,17.23,51.22,0,0-75-20.56-97.81-23.06L374.9,412.47s-43.34,7.22-40.29-23.34c0,0,.28-7-10.56-4.9Z" fill="#0071f2" data-primary="true"/>
<path d="M351,327.72s-9.18,6.32-1.31,13a15,15,0,0,0,11,3.36c6.51-.56,16.91-3.35,20.35-15.15,0,0-7.26-1.22-10.37-3.38,0,0-5.9,9.59-19.65,4Z" fill="#fff"/>
<path d="M356.81,394.71l2.39-47.54-3.47-2.36,1.67-12.37a18.48,18.48,0,0,1,5.56,7.5l-1.55,7.23,4.6,48.49s1.08,15.1-7.66,17.27l-54.86-.46s14.7-7.29,27.61-3a24.43,24.43,0,0,0,10.73,1.13c4.81-.6,10.4-2.8,13.39-9.2A17.83,17.83,0,0,0,356.81,394.71Z" fill="#2f2e41" data-secondary="true"/>
<path d="M445.81,453.87,417.88,337.64l-33.27-8.43s-6.28,22.87-6.28,43.48c0,0-7.8,23.55-12.57,28.74,0,0-.9,10.28-7.41,11.5a71.69,71.69,0,0,0,16.55-.46l12.23,28.62S420.57,447.7,445.81,453.87Z" fill="#fff" opacity="0.11"/>
<path d="M306.2,444.75c17.83-3.67,43.44-5.55,80.22-3.5a6.12,6.12,0,0,1,.86.1q17.88,3.16,36.79,7.32c20.33,4.49,39.56,9.5,57.64,14.79a7.06,7.06,0,0,1,4.47,3.92,33.33,33.33,0,0,1,2.2,7,36.85,36.85,0,0,1-1.69,20.09,7.09,7.09,0,0,1-6.65,4.64h-95.9a6.74,6.74,0,0,0-1.26.13c-1.82.34-8.07.72-14-8.48l-.19-.31c-1.65-2.84-28-47.08-57.26-32.41a7.34,7.34,0,0,1-4.11.76l-.48-.06C298.88,457.81,298.33,446.37,306.2,444.75Z" fill="#2f2e41" data-secondary="true"/>
<path d="M375.94,651.9c.33-.19.64-.39.94-.6a8.12,8.12,0,0,0,3.16-8.59c-2.3-9.54-9.49-23.41-9.49-23.41-3.33-36.68-14.82-111.15-14.82-111.15s-2.8-36-25.1-51c-4.63-3.12-10.22-2.93-15.56-1.29-7.38,2.26-15.07,12.53-7.13,35.66,0,0,28.15,88.18,52.61,129.67,0,0,.56,15.72,4.71,26.77A7.48,7.48,0,0,0,375.94,651.9Z" fill="#f9b499"/>
<path d="M354.36,499.15h24.71a27.38,27.38,0,0,1-11.67-11.93s-19.68-37.38-45.64-32.55C321.76,454.67,345.21,455.79,354.36,499.15Z" fill="#f9b499"/>
<path d="M281.72,460.13s14.15,3.6,25.86,29.51c0,0-7.36-19.65,2.46-30.77C310,458.87,294.06,456.44,281.72,460.13Z" fill="#f9b499"/>
<path d="M267.92,504.45s-7.78-16.12-2.22-32.24a21.19,21.19,0,0,1,15.77-12.08s15.25,3.88,25.86,29.51c0,0,38.95,119,40.62,129.29,0,0,15,17.51,14.17,26.12,0,0-6.11,11.12-13.06,5.84,0,0-8.89-17.23-10-27.51C339.06,623.38,279.31,540.29,267.92,504.45Z" fill="#f9b499"/>
<path d="M374.28,495.92s64.41.26,73.32-41.6l37.34,9.83s8.33,12.9,2,30.18a7.5,7.5,0,0,1-6.47,4.91c-32.57,2.44-64.65-2.84-99,.09a14.88,14.88,0,0,1-2.39-.18c-.64-.33-1.32-.72-2-1.18A24.76,24.76,0,0,1,374.28,495.92Z" opacity="0.2"/>
<path d="M380.28,499.15l.74,27H358.43s-3.22-21.89-4.07-27Z" fill="#2f2e41" data-secondary="true"/>
<path d="M567.24,301.45c-24.12,68.21-30.89,224.67-30.89,224.67H523s-2.72-110.78,31.66-229a32,32,0,0,0,.2-17.69c-2-6.9-6.77-14.76-18-19.53C536.91,259.87,578.37,258.83,567.24,301.45Z" opacity="0.2"/>
<path d="M615.87,358.93s-18.28-6.2-10-29.47a145.3,145.3,0,0,0,7.66-31.88c3.42-29,10-78.83,15.57-87.21,0,0-22.27-36.47-25.39-51.06l32.69-24.54s18.29,22.15,25.7,24.37l7-.74L708.08,161l51.5-19.64,17,39.28-34.46,32.6-11.1,84.85a161.73,161.73,0,0,0-1.2,28.51c.62,13.36-.51,34-12.89,36.69C717,363.28,637.77,367.91,615.87,358.93Z" fill="#0071f2" data-primary="true"/>
<path d="M629.13,210.37l5.22-20.85s-16.7-24-21.32-37.19l-9.29,7S610.58,182,629.13,210.37Z" opacity="0.2"/>
<path d="M692.89,364.48s13-6.75,17-27.13l19.64-132.64s9.26,21.49,12.59,8.52l-12,93a258.93,258.93,0,0,0-.24,28.53s.35,25.91-13,28.5Z" opacity="0.2"/>
<path d="M674.67,158.48l-5,0,2.82,22.92L683.25,169l6.93,10.94,17.9-18.9-3.82-.25S696.48,160.22,674.67,158.48Z" opacity="0.2"/>
<polygon points="678.07 183.59 678.07 174.94 683.25 168.95 687.89 176.27 681.4 185.44 671.4 279.55 653.24 302.52 648.43 276.22 678.07 183.59" fill="#2f2e41" data-secondary="true"/>
<path d="M607.42,156.54s-49.4-70-22.72-84.47c0,0,28.9-15,80.58-23.34,0,0,8.34-18.9,27.79-13.89l-7.78,11.67S668.43,51,669.92,62.62l-8.53-.55S604.2,82.31,607.21,94.5a4.29,4.29,0,0,0,.56,1.21l26.58,40.62Z" fill="#f9b499"/>
<path d="M668.16,95.27s-11.58-41,17.13-48.76c0,0,13.52-32.81,36.5-12.52,0,0,41.49,11,20.74,46.23,0,0,5.19,32.24-20.74,37.42,0,0-.51-14.88,5.35-24.45a18.7,18.7,0,0,0,1.14-18c-2.65-5.37-7.23-9.82-15-7.16,0,0-10.69,7.43-21.58,2.32a11.11,11.11,0,0,0-10.95.67C675.81,74.28,669.86,81.14,668.16,95.27Z" fill="#2f2e41" data-secondary="true"/>
<path d="M687.17,147.14a19.74,19.74,0,0,1-8.81-2.54l2-7.38s10.49,8.14,27.72-4.05l-.5,5.58L706.25,140A25.61,25.61,0,0,1,687.17,147.14Z" fill="#f4a48e"/>
<path d="M761.7,146.25l44.83-28.61s5-4.58-2.47-10.77L766.83,67.16A21.7,21.7,0,0,1,761,53.78c-.7-10.51-1-28.73,4.09-37.25,0,0,19.18,7.42,5.56,34,0,0,62.75,36.08,66.64,64a14,14,0,0,1-2.74,10.31c-7,9.37-29.59,37.2-59.33,52.5Z" fill="#f9b499"/>
<path d="M351,324.87v4.7s12.34,5.72,19.65-4a23.45,23.45,0,0,1-9.24-7.17A30.24,30.24,0,0,1,351,324.87Z" fill="#f9b499"/>
<path d="M384.61,329.21s-.35,27.41,2.61,35.93l31.87-1.86s.32-25.75-2.62-30.84c0,0-10.72-6.58-22.67-3.89C393.8,328.55,386.57,329.18,384.61,329.21Z" fill="#0071f2" data-primary="true"/>
<path d="M384.61,329.21s-.35,27.41,2.61,35.93l31.87-1.86s.32-25.75-2.62-30.84c0,0-10.72-6.58-22.67-3.89C393.8,328.55,386.57,329.18,384.61,329.21Z" opacity="0.2"/>
<path d="M387.22,365.14s9.27,125.41,0,179.88c0,0-5.13,18.6-3,32.84a8.59,8.59,0,0,0,11,7h0a8.57,8.57,0,0,0,6.05-9L398,539s29.45-51.19,21.12-175.68Z" fill="#f9b499"/>
<path d="M299.59,314.58a8.78,8.78,0,0,0,.25-6.89c-2.44-6.41-7.22-20.05-6-26.21l2.91-15.35a4.63,4.63,0,0,1,4.55-3.77h0a4.63,4.63,0,0,1,4.64,4.64v20.29a7.14,7.14,0,0,0,.63,2.95c1.66,3.72,6,14.43,3.88,21.78-.13.46-.27.91-.38,1.38-1.54,6.46-13.25,55.71-14,63.5l9.44-10.84,18.62,18.17s-28.71,33-46.12,28.24c0,0-18.9-4.45,0-52Z" fill="#f9b499"/>
<path d="M239.68,218.13a23.49,23.49,0,0,0-3.55-10.53l-51.29-82.94a20.39,20.39,0,0,0-11.77-9,16.8,16.8,0,0,0-14.32,2.26,20.38,20.38,0,0,0-6.54,7.32l-46.47,85.94a17.57,17.57,0,0,0-2,4.53c-3.3,11.39,4.75,22.95,16.53,24.38a30.64,30.64,0,0,0,6,.18l93.08-2.2A24.41,24.41,0,0,0,230.83,235C238.75,230.43,240.1,223.51,239.68,218.13Zm-18.23,9.54L123,230.28c-13.69-.68-9.53-12.35-9.53-12.35l48.92-89.37a7.47,7.47,0,0,1,12.95-.27l52.86,87.64C231.9,226.76,221.45,227.67,221.45,227.67Z" fill="#2f2e41" data-secondary="true"/>
<path d="M169.53,150.41h0a4.55,4.55,0,0,1,4.4,4.59l-.16,43.26a2.76,2.76,0,0,1-2.69,2.76h0a2.78,2.78,0,0,1-2.84-2.55l-3.42-43.16A4.56,4.56,0,0,1,169.53,150.41Z" fill="#2f2e41" data-secondary="true"/>
<circle cx="171.84" cy="212.79" r="3.75" fill="#2f2e41" data-secondary="true"/>
<path d="M644.81,637.76c10.87,3.54,3.36,19.62,3.36,19.62H598.53s-6.69-.37-7.89-4.82a5,5,0,0,1,3.25-5.94l24.2-8.86S629.18,632.67,644.81,637.76Z" fill="#0071f2" data-primary="true"/>
<path d="M717.3,639.06c10.87,3.54,3.36,19.62,3.36,19.62H671s-6.69-.38-7.89-4.82a5,5,0,0,1,3.25-5.94l24.2-8.86S701.67,634,717.3,639.06Z" fill="#0071f2" data-primary="true"/>
</svg>