 <!DOCTYPE svg PUBLIC "-//W3C//DTD SVG 1.1//EN" "http://www.w3.org/Graphics/SVG/1.1/DTD/svg11.dtd">
<svg id="af46eeab-ba65-433d-b41f-93e812e8a56b" data-name="Layer 1" xmlns="http://www.w3.org/2000/svg" width="865.76" height="682.89" viewBox="0 0 865.76 682.89">
<defs>
<style xmlns="http://www.w3.org/1999/xhtml">*, ::after, ::before { box-sizing: border-box; }
img, svg { vertical-align: middle; }
</style>
<style xmlns="http://www.w3.org/1999/xhtml">*, body, html { -webkit-font-smoothing: antialiased; }
img, svg { max-width: 100%; }
</style>
</defs>
<path d="M751.6,465.6h0c-19.94-7.22-58.71-16.92-129.53-21.64l-421.61,17.7s-69-2.22-108,3.23c0,0-94.27-38-63.27-233,0,0,21.14-149.65,223.22-160.09a416.38,416.38,0,0,1,48.05.44c31.58,2,128.47,6,215.49-13.54,0,0,90.84-24.16,185.26,16.88,81.45,35.38,137.25,113,141.43,201.71C845.3,334.66,827,403.73,751.6,465.6Z" fill="#0071f2" data-primary="true"/>
<path d="M751.6,465.6h0c-19.94-7.22-58.71-16.92-129.53-21.64l-421.61,17.7s-68.11-2.26-108,3.23c0,0-94.27-38-63.27-233,0,0,21.14-149.65,223.22-160.09a416.38,416.38,0,0,1,48.05.44c31.58,2,128.47,6,215.49-13.54,0,0,90.84-24.16,185.26,16.88,81.45,35.38,137.25,113,141.43,201.71C845.3,334.66,827,403.73,751.6,465.6Z" fill="#fff" opacity="0.7"/>
<path d="M753.49,600.51C768,648,259,626.42,259,626.42c-78.17,0-60-19.43-60-19.43-167.27-8.65-150.17-36.7-150.17-36.7-28.34-30.22,10.17-41,10.17-41-20.67-34.82-7.36-52.53,17.79-61C120.22,453.69,199,466.68,199,466.68L675.32,443c80,6.33,123.81,19.34,146.34,29h0c3.72,1.59,6.85,3.09,9.47,4.46,8.3,4.34,11.74,16.4,7,25.53C828.38,520.52,808,516.32,808,516.32c20,13,16.36,30,16.36,30C891.66,597.92,753.49,600.51,753.49,600.51Z" fill="#0071f2" data-primary="true"/>
<path d="M753.49,600.51C768,648,259,626.42,259,626.42c-78.17,0-60-19.43-60-19.43-167.27-8.65-150.17-36.7-150.17-36.7-28.34-30.22,10.17-41,10.17-41-20.67-34.82-7.36-52.53,17.79-61C120.22,453.69,199,466.68,199,466.68L675.32,443c80,6.33,123.81,19.34,146.34,29h0c3.72,1.59,6.85,3.09,9.47,4.46,8.3,4.34,11.74,16.4,7,25.53C828.38,520.52,808,516.32,808,516.32c20,13,16.36,30,16.36,30C891.66,597.92,753.49,600.51,753.49,600.51Z" fill="#fff" opacity="0.5"/>
<path d="M679.36,471.08l-14-11.05-27.53,21.05,53.84,5.34s6.68-9.18-8.47-13.43A10.81,10.81,0,0,1,679.36,471.08Z" fill="#0071f2" data-primary="true"/>
<path d="M679.36,471.08l-14-11.05-27.53,21.05,53.84,5.34s6.68-9.18-8.47-13.43A10.81,10.81,0,0,1,679.36,471.08Z" opacity="0.2"/>
<path d="M803.58,525.12s-28.67,7.6-73.62,5.72v-39s12.73-18,20.74-7.42l18.46,17.66a20.42,20.42,0,0,0,7.5,4.55C786.72,510.06,811,519.22,803.58,525.12Z" fill="#0071f2" data-primary="true"/>
<path d="M413.86,514.48H441a35.14,35.14,0,0,0,20.41-6.36C468.71,503,476,493.77,476,477.77c0,0,5.65-23.17-23.85-43.26A62.79,62.79,0,0,0,439.76,428l-86.09-33.83-71,27.57Z" fill="#2f2e41" data-secondary="true"/>
<path d="M413.86,514.48H441a35.14,35.14,0,0,0,20.41-6.36C468.71,503,476,493.77,476,477.77c0,0,5.65-23.17-23.85-43.26A62.79,62.79,0,0,0,439.76,428l-86.09-33.83-71,27.57Z" opacity="0.2"/>
<path d="M549.09,417s-103.48,31.69-92,72.71c0,0-1.63,35,66.61,24.79l76.36-88.89A206.21,206.21,0,0,0,549.09,417Z" fill="#2f2e41" data-secondary="true"/>
<path d="M549.09,417s-103.48,31.69-92,72.71c0,0-1.63,35,66.61,24.79l76.36-88.89A206.21,206.21,0,0,0,549.09,417Z" opacity="0.4"/>
<path d="M532.35,276.63a25.22,25.22,0,0,1,5.13,8.25s-6.34,21.49-6.11,22.2,28.17,26.26,28.17,26.26,23.16-22.2,22.68-22.91-11-27.73-11-27.73-8.29-3.26-13.44-15.07c0,0-3.83-.68-5.29-4.06C552.51,263.57,544.45,273.45,532.35,276.63Z" fill="#f9b499"/>
<path d="M532.35,276.63a28.34,28.34,0,0,1,5.13,8.25s14.32-8.91,15-21.31A39.69,39.69,0,0,1,532.35,276.63Z" fill="#f7a48b"/>
<path d="M512.91,271.18S514.69,290.47,510,300l27.51-15.14s-1.78-5.75-10.11-13.7Z" fill="#2f2e41" data-secondary="true"/>
<polygon points="74.19 408.05 74.19 447.28 140.69 476.96 141.59 434.38 74.19 408.05" fill="#d1d3d4"/>
<polygon points="140.69 476.96 210.7 454.35 206.01 416.22 141.59 434.38 140.69 476.96" fill="#bcbec0"/>
<polygon points="74.19 369.39 141.59 394.21 215.26 377.59 210.7 344.57 172.27 350.15 74.19 369.39" fill="#d1d3d4"/>
<polygon points="74.19 408.05 74.19 369.39 141.59 394.21 141.59 434.38 74.19 408.05" fill="#bcbec0"/>
<polygon points="206.01 416.22 141.59 434.38 141.59 394.21 210.7 378.97 206.01 416.22" fill="#a7a9ac"/>
<path d="M161.17,365.28a3.88,3.88,0,0,1-2.88,3.76,47.31,47.31,0,0,1-24.11,0,3.89,3.89,0,0,1-2.87-3.76V332.33h29.86Z" fill="#f1f2f2"/>
<path d="M194.43,456.83l16.27-7,38.22,23.59-57.41,15.92S197.34,471.37,194.43,456.83Z" fill="#2f2e41" data-secondary="true"/>
<path d="M194.43,456.83l16.27-7,38.22,23.59-57.41,15.92S197.34,471.37,194.43,456.83Z" opacity="0.2"/>
<path d="M194.85,459.44s-19.17-23.06-34.07,1.6c0,0-5.11,16.58-22.14,19.56,0,0-25.48-.09-28.4,10.54a7.86,7.86,0,0,0,5.57,9.4,31,31,0,0,0,9.62.92l19.29,3.71,46.79-15.81S197.41,470.22,194.85,459.44Z" fill="#0071f2" data-primary="true"/>
<path d="M400,294l-24.29,91.71-93,36.11c-10.75.17-19.72,4.2-27.29,8.42,0,0,0,0,0,0-21.68,12.13-31,33.92-31,33.92-8.32,10.42-12.14,0-12.14,0l-7.63-16c-9-10.76-4.86-18-4.86-18,1-5.89-.36-16.3-.36-16.3-4.5-9.72-.69-13.2-.69-13.2,6.25-9,4.87-15.33,4.87-15.33,1.73-6.45,3.09-16.24,4.15-26.47,2.16-20.76,3-43.33,3-43.33C190.48,295.92,166.35,294,166.35,294l45.14-65.53c13.55-19.44,25.35-18,25.35-18,17.7-6.26,61.85-8.71,61.85-8.71l39.63,9.39,16.88,9.73c16.59,7.24,25,28.46,25,28.46Z" fill="#0071f2" data-primary="true"/>
<path d="M368.79,242.67s-8.18,50.5-12.27,60.17h9.3S371.77,269.56,368.79,242.67Z" opacity="0.2"/>
<path d="M307.77,174.2l-9.08,27.48s6.4,39.88,29.27,41a7.62,7.62,0,0,0,4.08-.93c3.88-2.18,11.08-8.93,6.58-28.18a12.49,12.49,0,0,1-.23-4.31l1.66-13.79L315.23,169.1S311.77,173.21,307.77,174.2Z" fill="#f9b499"/>
<path d="M225.38,311.39l14.83-27.68a24.18,24.18,0,0,0,2.79-9.6c.67-8.76.42-26.38-9.15-43.81,0,0,21.85,25.3,12.92,57.66l-8.2,22.09Z" opacity="0.2"/>
<path d="M290.61,340.16a15.32,15.32,0,0,1-5.87,2.09c-6.15.9-21.67,3.57-29,8.58a25.14,25.14,0,0,1-6.89,3.81,35.12,35.12,0,0,0-19.71,17.28A71.54,71.54,0,0,0,223.34,388s-11.45,18-8.34,36.52a15.25,15.25,0,0,0,18.45,12.24,119.82,119.82,0,0,0,22.42-7.54c-21.69,12.12-31.54,34.87-31.54,34.87-8.32,10.42-12.14,0-12.14,0l-7.63-16c-9-10.76-4.86-18-4.86-18,1-5.89-.36-16.3-.36-16.3-4.5-9.72-.69-13.2-.69-13.2,6.25-9,4.87-15.33,4.87-15.33,1.73-6.45,3.09-16.24,4.15-26.47l33.53-21.74,60.72-27.74S307.13,330,290.61,340.16Z" opacity="0.2"/>
<path d="M273.06,295.21,287,259.38a5.84,5.84,0,0,1,7.07-3.5l12.44,3.57a5.85,5.85,0,0,1,3.81,7.81L303,285.62l-6.51,20.95-25.77-7.17Z" fill="#bcbec0"/>
<path d="M264.16,283.75l11.95-28.56a8.44,8.44,0,0,1,7.08-5.2l.24,0a8.24,8.24,0,0,1,5.66,1.88l5,4L276.55,301l-5.87-1.63Z" fill="#d1d3d4"/>
<path d="M286.07,250.28l2.31-4.34a1.45,1.45,0,0,1,1.89-.77l16,6.67a1.44,1.44,0,0,1,.74,2l-2.56,5-10.41-3S287.13,250.71,286.07,250.28Z" fill="#a7a9ac"/>
<path d="M391.62,531.29,279.13,542.93c-64.82,7-115.89,17.44-115.89,17.44-13.15,1.75-10.11-7.56-10.11-7.56,4.07-26.18-7-50-7-50l92.43-27.35-16.42-8.95c24.81-47.93,60.5-44.71,60.5-44.71l28.11-10.91L329.4,419l40.22,17.5c54.79,15.12,48.77,51.77,48.77,51.77C419,531.29,391.62,531.29,391.62,531.29Z" fill="#2f2e41" data-secondary="true"/>
<path d="M286.66,466.13l-48.09,9.31-16.42-8.95c24.81-47.93,60.5-44.71,60.5-44.71l28.11-10.91L329.4,419c-33.72,0-65.24,19.83-65.24,19.83C247.22,453.34,286.66,466.13,286.66,466.13Z" opacity="0.1"/>
<path d="M302.7,462.65a64,64,0,0,1,9.15-2.35,86.56,86.56,0,0,1,9.38-1.23,72.83,72.83,0,0,1,9.46-.09,51.63,51.63,0,0,1,9.36,1.34c-3.15-.19-6.26-.37-9.38-.33s-6.24.11-9.35.37C315.1,460.81,308.91,461.63,302.7,462.65Z" opacity="0.2"/>
<path d="M153.51,550s-29.35,15-77.48,14.1c0,0-15.45,1.92-18.8-2.55-.83-1.08-.93-2.54.07-4.48,0,0,3.58-9,20.74-12.62a22.45,22.45,0,0,0,13.22-8.29,128,128,0,0,1,13.89-15.5,18.64,18.64,0,0,0,4.24-5.83c4.14-8.92,16.83-31.88,32.3-17.22a36.49,36.49,0,0,1,4.45,5.22A92.72,92.72,0,0,1,153.51,550Z" fill="#0071f2" data-primary="true"/>
<path d="M153.51,550s-29.35,15-77.48,14.1c0,0-15.45,1.92-18.8-2.55C85.92,554.7,124.58,536,124.58,536c24.27-10.21,17.11-38.38,17.11-38.38a36.49,36.49,0,0,1,4.45,5.22A92.72,92.72,0,0,1,153.51,550Z" fill="#fff" opacity="0.2"/>
<ellipse cx="537.41" cy="236.65" rx="43.12" ry="27.77" transform="translate(89.69 616.6) rotate(-64.09)" fill="#f9b499"/>
<path d="M685.49,356.74s-11.61,15.92-25.81,12c0,0-1.55-6.52-4.33-15.52-4-12.8-10.4-30.61-18.48-41.87,0,0-12.72-30.68-32.32-24.85a23.43,23.43,0,0,1-8.56,1c-7.37-.58-20.75-2.15-27.1-6.11,0,0-8.75-6.24-11.09-13.84L563.66,246s-26.5-2.89-37.54-40.08c0,0-14,10.92-19.41,36.79,0,0-11.83-40.42,25.6-46.43,0,0,33.14-10.4,51.64,9.64,0,0,6,2.4,15.92,34.24,0,0,9,28,38.73,44.75l21.51,11.19S708.31,323.18,685.49,356.74Z" fill="#2f2e41" data-secondary="true"/>
<path d="M655.36,353.27h0c-4-12.8-10.4-30.61-18.48-41.87,0,0-12.72-30.68-32.32-24.85a23.43,23.43,0,0,1-8.56,1c-7.37-.58-20.75-2.15-27.1-6.11,0,0-8.75-6.24-11.09-13.84,0,0,5.85,1.52,9.89-2.86,0,0,15.62,14.83,36,16.7,9,.83,11.19-3.9,29.26,9.87C633,291.34,679.43,322.27,655.36,353.27Z" opacity="0.2"/>
<path d="M659.68,368.78s-8.18-40.34-22.81-57.39c0,0-12.58-32.22-32.32-24.85,0,0-4.7,4.6-33.31-3.84,0,0,.31,35.95-12.23,39.08a4.47,4.47,0,0,1-2.61-.12c-2.35-.85-7.14-3.9-10.4-14.93-.61-2.06-1.29-4.1-2.1-6.1l-6.42-15.75c-18.94,2.58-38.73,26.51-38.73,26.51C487.13,326.29,454,351.15,454,351.15l60.24,18.24,14.63-12.22L541,379.69a41.41,41.41,0,0,1,4.47,13.39l3.65,23.9s86.11.86,113.19,55.51c0,0,15.47-46.05-2.6-103.71" fill="#0071f2" data-primary="true"/>
<path d="M580.14,350.51s-.37,2.62,1.3,7.25a31.7,31.7,0,0,0,6,10c8,9.19,32.8,35.89,43.19,26.45l-2.38-36.27-36.47-11.29Z" fill="#0071f2" data-primary="true"/>
<path d="M580.14,350.51s-.37,2.62,1.3,7.25a31.7,31.7,0,0,0,6,10c8,9.19,32.8,35.89,43.19,26.45l-2.38-36.27-36.47-11.29Z" opacity="0.2"/>
<polygon points="528.87 357.17 522.54 362.46 509.97 317.99 528.87 357.17" opacity="0.2"/>
<path d="M596.18,424.43s-89.41,34.36-91.24,50.23c0,0-14.27,28.3,16.6,47.17,0,0,3.86,6.43,102.49,9H730v-39l-88.34-12.43s16-.06,20.67-6.89C662.28,472.49,653.23,441.52,596.18,424.43Z" fill="#2f2e41" data-secondary="true"/>
<path d="M620.69,433.84A37.2,37.2,0,0,1,628,445.11a13.28,13.28,0,0,1-8.38,17.26l-30.78,10.12,52.74,6.89s16,.37,20.67-6.89C662.28,472.49,654.66,450.9,620.69,433.84Z" opacity="0.2"/>
<path d="M394.53,478.62c-8.88-5-9-19.53-9-20.06a28.39,28.39,0,0,0,8.36,5.18C392.86,470.07,394.53,478.62,394.53,478.62Z" fill="#fff"/>
<path d="M405.55,483.69s-7.37-3.87-9.53-18.47a79,79,0,0,0,9.53,1.58A93.31,93.31,0,0,0,405.55,483.69Z" fill="#fff"/>
<path d="M411.7,466s1.84,7.45,5.74,10c0,0-1.56-11.07,1.14-13.38C418.58,462.65,414.82,465.84,411.7,466Z" fill="#fff"/>
<path d="M481.1,461l-1.17,12.9a14.31,14.31,0,0,0,5.68-9.15A7.72,7.72,0,0,1,481.1,461Z" fill="#fff"/>
<path d="M488.1,465.68s.64,10.59,0,13.71a19.32,19.32,0,0,0,6.12-12.67Z" fill="#fff"/>
<path d="M498,466.66s.76,4.42-.8,7.79c0,0,4.51-1.71,6.33-10.27C503.5,464.18,500.87,466.55,498,466.66Z" fill="#fff"/>
<path d="M445.34,444.31s-.41,16.43,16.6,16.65c0,0,13,1.33,15.63-11.18Z" fill="#0071f2" data-primary="true"/>
<path d="M445.34,444.31s-.41,16.43,16.6,16.65c0,0,13,1.33,15.63-11.18Z" fill="#fff" opacity="0.5"/>
<path d="M452.22,468.59a11.32,11.32,0,0,1-2-11.88s4.07,3,6,3.43C456.22,460.14,452.22,463.69,452.22,468.59Z" fill="#fff"/>
<path d="M459.13,460.76l.72,11.78s4.2-6.07,4.36-11.58Z" fill="#fff"/>
<path d="M468.59,460.12,468,470.46a22.38,22.38,0,0,0,5-12.69A13.63,13.63,0,0,1,468.59,460.12Z" fill="#fff"/>
<ellipse cx="517" cy="373.38" rx="15.35" ry="18.68" fill="#0071f2" data-primary="true"/>
<ellipse cx="517" cy="373.38" rx="15.35" ry="18.68" fill="#fff" opacity="0.6"/>
<path d="M803.58,525.12s-28.67,7.6-73.62,5.72v-39s4.71,2.21,7.92,12.13c0,0,2.64,7.11,14.81,6.78a46.54,46.54,0,0,1,10,.69C774.34,513.62,799.43,519,803.58,525.12Z" opacity="0.2"/>
<path d="M338.32,211.07l1.1-10.41-22.57-22.87S315,202.17,338.32,211.07Z" fill="#f7a48b"/>
<ellipse cx="343.47" cy="159.21" rx="44.16" ry="29.26" transform="translate(146.29 482.39) rotate(-83.48)" fill="#f9b499"/>
<path d="M302.61,152.66s-6-45.42,11.64-42.82c3.11-1,1-10.38,17.64-9.34,0,0,9.84-.86,21.74,6.75a14.18,14.18,0,0,0,8.35,2.24c7.19-.37,20.51-.36,23.87,4.5,0,0,10.28,13.4-2.74,26.52a17.07,17.07,0,0,1-9.53,4.89c-7.29,1.12-21,.15-40.13-14.29,0,0-5.19-2.07-5.19,5.71,0,0-5.71,24-11.41,22.39Z" fill="#2f2e41" data-secondary="true"/>
<ellipse cx="307.77" cy="162.39" rx="9.08" ry="11.82" fill="#f9b499"/>
<path d="M238.57,345.41s-38.92,25.53-61.12,9.93a29.46,29.46,0,0,1-9.69-12s-13.26-24.68,5.64-48.06l0-.05h.06a57.45,57.45,0,0,1,6.62,1.82,78.9,78.9,0,0,1,30.58,18.44l14.68-4.09S224,338.46,238.57,345.41Z" fill="#f9b499"/>
<path d="M210.7,315.48c-18.15-5.63-31.14,9.8-31.14,9.8-8.33,11.1-2,30.12-2,30.12l-.08-.06a29.46,29.46,0,0,1-9.69-12s-13.26-24.68,5.64-48.06l0-.05h.06c2.34.57,4.54,1.18,6.62,1.82C203.26,304.17,210.7,315.48,210.7,315.48Z" fill="#f7a48b"/>
<path d="M225.38,311.39l15.36-1.56s10.52-22,26.4-33.2c0,0,1.2,23.57,13.69,22,0,0,18-3.91,20.31-8.85l1.82-4.17s14.06,12-1,23.69c0,0,2.34,9.13-5.47,18.49,0,0-3.64,9.63-16.66,7.41,0,0-17.7-2.47-24,1.44l-17.27,8.76S224.86,341.07,225.38,311.39Z" fill="#fff"/>
<ellipse cx="562.88" cy="256.73" rx="12.64" ry="9.25" transform="translate(-16.67 473.21) rotate(-45)" fill="#f9b499"/>
<path d="M562.88,395.65s16.43-30.37,19.35-44.72c0,0,23.77,5.42,38.46,24.77l-20.61,49.89S589.86,397.14,562.88,395.65Z" fill="#fff"/>
<path d="M580.14,350.51S617,356,630.63,394.21c0,0,17.52-67.46-5.64-94.19,0,0-15.61-22.68-28.26-5a27.93,27.93,0,0,0-4.6,10.93C590.08,316.33,584.44,343.59,580.14,350.51Z" fill="#0071f2" data-primary="true"/>
<path d="M580.14,350.51S617,356,630.63,394.21c0,0,17.52-67.46-5.64-94.19,0,0-15.61-22.68-28.26-5a27.93,27.93,0,0,0-4.6,10.93C590.08,316.33,584.44,343.59,580.14,350.51Z" opacity="0.2"/>
<path d="M523.72,406.51s-6.48,45.65-20.22,57.67a11,11,0,0,1-7.3,2.61c-6.38,0-20.23-1.81-16.12-17.36,0,0-46.43-5.09-54.07-12,0,0,2.78,28.95-17.7,29.4a43.39,43.39,0,0,1-16.64-3.05,28.52,28.52,0,0,1-8.36-5.18h0c-5.32-4.85-9.07-12.52-8-24.71L379.54,417s-11.5-2.84-15-7.7c0,0-5.38-.53-20.22,10.93,0,0-30.45,35.4-54.92,18a28.48,28.48,0,0,1-7.64-9.09,17.59,17.59,0,0,1-2.09-8.26c0-4.42,1.86-9.42,7.12-14.68a26.43,26.43,0,0,1,19.31-8.22,29.68,29.68,0,0,0,10.9-2L334.72,389s8.3-3.89,5.33-5.12c0,0-11.93-5.84-16.84-10.3a36.77,36.77,0,0,1-7.76-44,29,29,0,0,1,2.07-3.35s-18.09-11.91-.67-30.13c0,0,20.38-14.83,30.07,6.72,0,0,15.24-7,35,0,0,0,10.6-17.09,27.87-7.65A23.17,23.17,0,0,1,420.81,308c2.16,6.5,1.9,15.55-11.78,21.62,0,0,9.69,10.51,8.19,23.67,0,0,58.41-6.69,86.31,9.18,0,0,.42.14,1.15.43C509.89,365,530.57,375.47,523.72,406.51Z" fill="#0071f2" data-primary="true"/>
<path d="M523.72,406.51s-6.48,45.65-20.22,57.67a11,11,0,0,1-7.3,2.61c-6.38,0-20.23-1.81-16.12-17.36,0,0-46.43-5.09-54.07-12,0,0,2.78,28.95-17.7,29.4a43.39,43.39,0,0,1-16.64-3.05,28.52,28.52,0,0,1-8.36-5.18h0c-5.32-4.85-9.07-12.52-8-24.71L379.54,417s-11.5-2.84-15-7.7c0,0-5.38-.53-20.22,10.93,0,0-30.45,35.4-54.92,18a28.48,28.48,0,0,1-7.64-9.09,17.59,17.59,0,0,1-2.09-8.26c0-4.42,1.86-9.42,7.12-14.68a26.43,26.43,0,0,1,19.31-8.22,29.68,29.68,0,0,0,10.9-2L334.72,389s8.3-3.89,5.33-5.12c0,0-11.93-5.84-16.84-10.3a36.77,36.77,0,0,1-7.76-44,29,29,0,0,1,2.07-3.35s-18.09-11.91-.67-30.13c0,0,20.38-14.83,30.07,6.72,0,0,15.24-7,35,0,0,0,10.6-17.09,27.87-7.65A23.17,23.17,0,0,1,420.81,308c2.16,6.5,1.9,15.55-11.78,21.62,0,0,9.69,10.51,8.19,23.67,0,0,58.41-6.69,86.31,9.18,0,0,.42.14,1.15.43C509.89,365,530.57,375.47,523.72,406.51Z" fill="#fff" opacity="0.5"/>
<path d="M426,437.39s2.78,28.95-17.7,29.4c0,0-36.1,1.68-33-33,0,0,4.64,13.72,19.41,15a25.46,25.46,0,0,0,24.88-14.66,46,46,0,0,0,2.57-6.68s4.69-30.64,20.31-31.84C442.5,395.66,424.89,412.92,426,437.39Z" fill="#fff" opacity="0.5"/>
<path d="M429.3,417s36.17,1.27,45.38,0l-1.84,18.73-14.12,10.77s-24.31-2.67-32.71-9.09C426,437.39,424.69,426.74,429.3,417Z" fill="#fff" opacity="0.3"/>
<path d="M513,448.68a193.09,193.09,0,0,0,11.25-45.09s-37.51-1.55-49.61,5.55l-1.84,26.57S507.21,442.46,513,448.68Z" fill="#fff"/>
<path d="M364.57,409.28s-7.51-7.54,1.45-10.21c0,0,10.09-2.11,15.49,2.15l-2,15.76S370.06,415.63,364.57,409.28Z" fill="#fff" opacity="0.3"/>
<path d="M312.41,397.28s27,11.9,25.07,29.78c0,0,5-4.33,6.87-6.85,0,0,9-7.07,13.66-8.86,0,0-5.59-19.82-23.29-22.31C334.72,389,315.84,396.76,312.41,397.28Z" fill="#fff"/>
<path d="M504.68,362.88C498,372.44,454,365.77,454,365.77c-22-5.19-46.86-1.38-46.86-1.38a27.12,27.12,0,0,0,10.08-11.12s58.41-6.69,86.31,9.18C503.53,362.45,504,362.59,504.68,362.88Z" fill="#fff" opacity="0.5"/>
<ellipse cx="350.95" cy="354.7" rx="31.01" ry="26.36" fill="#fff" opacity="0.5"/>
<path d="M339,343.87l-3.33-5a1,1,0,0,1,.24-1.36c1.64-1.21,5.95-3.56,12.5-1a.59.59,0,0,1,.17,1l-7.2,6.66A1.57,1.57,0,0,1,339,343.87Z" fill="#2f2e41" data-secondary="true"/>
<path d="M340.26,344.56c.05,1,.08,2,.15,3s.09,2,.17,3c.14,2,.28,4,.5,5.92s.48,3.94.86,5.88a14.34,14.34,0,0,0,.3,1.45c.12.48.21,1,.36,1.44s.26,1,.42,1.42l.51,1.4a22.27,22.27,0,0,1-2.08-5.61,43.69,43.69,0,0,1-1-5.91c-.21-2-.34-4-.36-6A59.63,59.63,0,0,1,340.26,344.56Z" fill="#2f2e41" data-secondary="true"/>
<path d="M340.24,373.61a14.17,14.17,0,0,0,1-1,11.92,11.92,0,0,0,.91-1.11,6.59,6.59,0,0,0,.7-1.2,3.67,3.67,0,0,0,.33-1.28l.05-.62.48.4a18,18,0,0,0,1.62,1.21,19.27,19.27,0,0,0,1.76,1,17.31,17.31,0,0,0,1.86.84,14.11,14.11,0,0,0,2,.62,9.14,9.14,0,0,1-2.08-.28,11.68,11.68,0,0,1-2-.68,14.59,14.59,0,0,1-3.57-2.27l.53-.22a4,4,0,0,1-.45,1.5,6.37,6.37,0,0,1-.86,1.24,7.93,7.93,0,0,1-1.08,1A7.63,7.63,0,0,1,340.24,373.61Z" fill="#2f2e41" data-secondary="true"/>
<path d="M385.24,313.43s12.76,7.14,19.14,14.91c0,0,17.14-8.8,9-21a17.23,17.23,0,0,0-9.28-6.75C397.85,298.65,387.79,298.14,385.24,313.43Z" fill="#fff" opacity="0.5"/>
<path d="M319.94,321.93s6.75-13.87,20.11-17.48c0,0-6.72-8-15.72-3.61a14.61,14.61,0,0,0-7.47,8.79C315.74,313.24,315.52,318.08,319.94,321.93Z" fill="#fff" opacity="0.5"/>
<path d="M562.88,395.65l-49.39,19.07a11.62,11.62,0,0,1-10.4-1c-5-3.14-13.24-7.18-20.15-5.18l-14.29-1.94a2,2,0,0,0-2.18,2.64c.88,2.45,3.93,5.62,13.69,6.25,0,0-1.39,5.56-8.33,10.06,0,0-30.55,3.47-26,17.36,0,0,19.23,18.26,62.46-3a13.21,13.21,0,0,1,3.58-1.18c10.53-1.87,62.86-11,88.24-13.21C600.08,425.59,590.61,397.32,562.88,395.65Z" fill="#f9b499"/>
<path d="M289.11,452.78l11.39-11a4.55,4.55,0,0,0,.3-6.36,3.07,3.07,0,0,0-3.27-.9,4.25,4.25,0,0,0-2.33,1.8C293.24,439.3,288,447.9,289.11,452.78Z" fill="#fff"/>
<path d="M276.31,447.28l11.39-11a4.54,4.54,0,0,0,.3-6.35,3.08,3.08,0,0,0-3.27-.91,4.23,4.23,0,0,0-2.33,1.81C280.44,433.8,275.17,442.41,276.31,447.28Z" fill="#fff"/>
<path d="M281.79,429.09l-10.51,8.58c-.73-5,5.23-13.09,7.43-15.88a5,5,0,0,1,1-1A17.59,17.59,0,0,0,281.79,429.09Z" fill="#fff"/>
<ellipse cx="146.24" cy="332.33" rx="14.93" ry="2.89" fill="#e6e7e8"/>
</svg>