 <!DOCTYPE svg PUBLIC "-//W3C//DTD SVG 1.1//EN" "http://www.w3.org/Graphics/SVG/1.1/DTD/svg11.dtd">
<svg id="b547973c-c7fe-4b32-a199-61ddc288a6c2" data-name="Layer 1" xmlns="http://www.w3.org/2000/svg" width="865.76" height="682.89" viewBox="0 0 865.76 682.89">
<defs>
<style xmlns="http://www.w3.org/1999/xhtml">*, ::after, ::before { box-sizing: border-box; }
img, svg { vertical-align: middle; }
</style>
<style xmlns="http://www.w3.org/1999/xhtml">*, body, html { -webkit-font-smoothing: antialiased; }
img, svg { max-width: 100%; }
</style>
</defs>
<polygon points="53.93 538.29 53.93 454.56 141.22 480.11 132.79 538.29 53.93 538.29" fill="#2f2e41" data-secondary="true"/>
<polygon points="53.93 538.29 53.93 454.56 141.22 480.11 132.79 538.29 53.93 538.29" fill="#fff" opacity="0.1"/>
<polygon points="85.41 437.14 53.93 454.56 155.64 485.67 156.63 466.57 164.57 461.41 85.41 437.14" fill="#2f2e41" data-secondary="true"/>
<polygon points="109.25 456.23 77.81 441.35 81.31 439.41 113.64 452.94 120.23 447.82 124.36 449.08 118.18 454.56 156.41 470.73 156.41 475.32 114.61 457.36 101.31 468.51 101.31 538.29 95.14 538.29 94.95 466.57 109.25 456.23" fill="#0071f2" data-primary="true"/>
<polygon points="156.63 466.57 152.53 545.9 305.08 547.37 294.57 475.32 156.63 466.57" fill="#d1d3d4"/>
<polygon points="201.91 437.14 156.63 466.57 294.57 475.32 332.86 444.99 201.91 437.14" fill="#bcbec0"/>
<polygon points="332.86 444.99 345.68 524.36 305.08 547.37 294.57 475.32 332.86 444.99" fill="#e6e7e8"/>
<polygon points="220.73 546.61 220.73 470.73 235.34 450.67 189.84 444.99 195.26 441.46 233.5 446.23 239.69 439.41 246.73 439.83 240.64 446.66 317.02 457.53 341.93 526.88 337.98 528.73 310.58 462.64 241.5 450.56 225.93 470.97 226.36 546.61 220.73 546.61" fill="#2f2e41" data-secondary="true"/>
<polygon points="99.79 490.91 99.79 563.71 182.66 563.71 182.66 517.41 99.79 490.91" fill="#d1d3d4"/>
<polygon points="213.59 505.51 182.66 517.41 182.66 563.71 201.26 556.35 213.59 505.51" fill="#e6e7e8"/>
<polygon points="133.33 478.03 99.79 490.91 182.66 517.41 213.59 505.51 133.33 478.03" fill="#bcbec0"/>
<polygon points="124.36 481.47 148.25 493.01 136.31 502.59 137.65 563.71 141.22 563.71 139.96 503.75 154.31 494.94 194.5 512.85 194.5 559.03 198.12 557.59 198.12 511.46 158.42 493.01 164.66 488.76 161.24 487.59 152.53 490.91 127.92 480.11 124.36 481.47" fill="#2f2e41" data-secondary="true"/>
<path d="M257.87,403.06c-12.8-3.84-17.5,32.22-17.5,32.22,1.28-27.52-6.83-32.65-6.83-32.65-6-7.68-11.3,1.5-11.3,1.5-9,16.43,12.39,40.86,12.39,40.86l6,1.67,5-5.64C272.5,407.08,257.87,403.06,257.87,403.06ZM236.5,442.92S220.68,423,224.58,408.87c1.2-4.32,7.26-4.57,9.09-.49C235.87,413.28,237.49,423.2,236.5,442.92Zm6.22-5.78s3.69-24.74,12.44-30.67a1.91,1.91,0,0,1,2.89,1.29C258.73,411.63,257.74,420.71,242.72,437.14Z" fill="#2f2e41" data-secondary="true"/>
<path d="M506.42,557.68v5.81s16.56-4.32,15.69,15.15c0,0,3.46-5.63,13.2-4.55,0,0,4.91.53,5.71-6.21,0,0-10.41-5.62-19-6.57-.47-.08-1.2-.18-2.1-.27a32.36,32.36,0,0,0-3.42-.16C515.12,560.88,512.34,560.26,506.42,557.68Z" fill="#f9b499"/>
<path d="M461.55,624.19s.2,10.78,17.77,9.77a50.52,50.52,0,0,0,28.75-11.16A58.26,58.26,0,0,0,518,612.6a88.32,88.32,0,0,1,21.91-17.29s6.89-3.45,5.47-9.95a4.38,4.38,0,0,1-2.49,3.57s-13,4.16-20.75,13.69a16.75,16.75,0,0,0-8,5.85,52,52,0,0,1-33.33,20.84S465.33,632.08,461.55,624.19Z" fill="#2f2e41" data-secondary="true"/>
<path d="M392.76,572.16s-5.65,8.21,4.08,14.92c0,0,6.93,6.08,31.16-1.72,0,0,24.26-8.89,33.55-10.4,0,0,18.92-1,26.39-6.54a.85.85,0,0,0,.34-.7v-4.53s.44,4.63-7.7,4c0,0-12.34-1.89-23.62,3.63,0,0-25.56,10.21-37.55,11.51C419.41,582.33,388.8,586.74,392.76,572.16Z" fill="#2f2e41" data-secondary="true"/>
<polygon points="615.83 429.37 487.42 392 520 374.18 626.31 399.28 615.83 429.37" fill="#e6e7e8"/>
<path d="M417.26,430.93s-41-117.76,2.3-129.22c0,0,26-5.63,67.93,14.82l-64,41.77Z" fill="#bcbec0"/>
<path d="M434.92,466.57l193.45,33.54q27.14-5.62,55.81-10.66,21.75-3.81,42.78-7,11.34,45.6,22.67,91.2l-6.33,2.58-29.52-82.71-80.66,15.29,8.53,99.22h-7.79L618,507.13,439.74,476.3l3.79,61L433,540.63Z" fill="#bcbec0"/>
<polygon points="619.94 428.27 509.45 397.71 465.36 383.46 481.65 474.67 626.31 499.97 619.94 428.27" fill="#d1d3d4"/>
<path d="M487.49,316.53s-65.07,5.16-70.44,36.73c0,0-4.52,28.71,2.62,112.66,0,0,5.28,44.13,8.7,59.9a6.87,6.87,0,0,0,5.86,5.4,33,33,0,0,0,8.48-.18,23.2,23.2,0,0,1,11.25.38s33.53,13.9,41.76-15.52c0,0-9.34-85.68-8.3-124.62,0,0,28.52-7.47,36.85-5.52,0,0,3.92-21.72,21.94-25.78l-9.71-14.56-36.35-11.26-6.33-15.09Z" fill="#2f2e41" data-secondary="true"/>
<path d="M743.3,94.46s-53.73,22.14-159.72,5.8l-18.9,4.93-8.87,84.07L714.05,291.82Z" fill="#d1d3d4"/>
<path d="M652.57,138.15c4.76,4.21,31.59,11,31.59,11s31.63,4.69,32.57,41A60.81,60.81,0,0,1,716,200.4c-2.2,15.4-10.1,69.13-15.64,87.68l-31.15,13.63L561.16,280,568,194s9.62-15.17,31.58-31.6Z" fill="#0071f2" data-primary="true"/>
<path d="M652.57,138.15c4.76,4.21,31.59,11,31.59,11s31.63,4.69,32.57,41A60.81,60.81,0,0,1,716,200.4c-2.2,15.4-10.1,69.13-15.64,87.68l-31.15,13.63L561.16,280,568,194s9.62-15.17,31.58-31.6Z" fill="#fff" opacity="0.2"/>
<path d="M511.83,291c-.31,1.17-.88.67-1.41-.27a7.51,7.51,0,0,1-.4-6.57c4.15-10.14,20-26.1,20-26.1l18.89-4.27,25.08-.95,17-5.7s15.84,8.05,14.25,38.21c0,0-21.07,13.27-27.88,16.36l2.28,3.24s-9.6,6.75-28.89-1.13c0,0,6.48-3,3.19-11.11a5.44,5.44,0,0,0-3-3l-21.73-8.48S515.24,278.18,511.83,291Z" fill="#0071f2" data-primary="true"/>
<path d="M575.12,286.45s1-22.07,11.84-29c0,0-11.36,1.57-14.76,28.37,0,0-13-1.27-16.39,4.41,0,0,14.76-6.33,24.34,1.46C580.15,291.65,579.82,288.08,575.12,286.45Z" opacity="0.2"/>
<path d="M493.82,301.71l55,17.36,17.36-12.47s-9.57-.51-15.41-2.78L519.63,294Z" fill="#bcbec0"/>
<polygon points="493.82 346.33 493.82 301.71 548.83 319.07 548.83 346.33 493.82 346.33" fill="#d1d3d4"/>
<polygon points="566.19 306.6 566.19 345.03 548.83 346.33 548.83 319.07 566.19 306.6" fill="#e6e7e8"/>
<path d="M493.82,328.1V305a11.24,11.24,0,0,0-6.33,11.58S489.12,324.86,493.82,328.1Z" fill="#0071f2" data-primary="true"/>
<path d="M493.82,328.1V305a11.24,11.24,0,0,0-6.33,11.58S489.12,324.86,493.82,328.1Z" fill="#fff" opacity="0.2"/>
<path d="M572.48,348.34s12,8.27,23.7,7A14.8,14.8,0,0,0,607.54,348c1.79-3.14,3.55-7.94,4.07-15l-6,1.18a40.43,40.43,0,0,1-5.52-4.26S585.52,342,572.48,348.34Z" fill="#0071f2" data-primary="true"/>
<path d="M542.94,356.1s4.43,9.21,16.11,6c0,0,7.77-1.64,9.48-11.85,0,0-10.78,5-15.64,1.46A42.47,42.47,0,0,1,542.94,356.1Z" fill="#0071f2" data-primary="true"/>
<path d="M493.82,339.35s-8.13-3.11-14.51-2.49a7.37,7.37,0,0,0-5.86,10.65c2.53,5.13,8.25,13.23,18.94,12.41,0,0,11.7-1.85,17.06-5.83a44,44,0,0,1-1.67-7.76h-14Z" fill="#0071f2" data-primary="true"/>
<polygon points="518.26 309.42 518.26 346.34 521.73 346.34 521.73 310.52 518.26 309.42" fill="#bcbec0"/>
<path d="M497.58,546.81c2.27-18.24,14.92-118.93,20.68-140,0,0,6.19-47,28-46.87,0,0,4.78,4.49,12.84,2.09,0,0,7.14-1.36,9.48-11.85l4-1.88s16,10.94,28.56,5.63c0,0,9.41-2.48,10.57-21,0,0,23.94-5.39,34.18-12.16,0,0-21.48,35.09-27.64,81.49,0,0-29.4,16.06-32.49,16.71l-12.92,89.3s-3.46,51.28-13.63,56.9a19.76,19.76,0,0,1-21.21,1.3s-11.89-5.62-18.82-5.41a28.53,28.53,0,0,1-19.76-8.91A6.75,6.75,0,0,1,497.58,546.81Z" fill="#2f2e41" data-secondary="true"/>
<path d="M506.42,560.46s-5.13,1-8.22,8.55c0,0-13,21.69-28.39,34.51,0,0-9.77,6.68-9.42,16.37a10.41,10.41,0,0,0,8.75,9.76c7.29,1.25,20.61,1,37.28-10.72a56.64,56.64,0,0,0,9.39-9.39,71,71,0,0,1,19-16.61,55.5,55.5,0,0,1,8.11-4,3.94,3.94,0,0,0,2.49-3.57c.13-4.1.1-12.11-1.17-16.64l-3.28-.87s-.57,6.19-5.62,6.24c0,0-9.09-1.35-13.2,4.55C522.11,578.64,524.36,560.57,506.42,560.46Z" fill="#0071f2" data-primary="true"/>
<path d="M443.13,531l.19,3.1s9.21,4.13,9.23,13.32c0,0,14.63,12.3,29.1-8.24v-6.3a45,45,0,0,1-26.59-1A19.38,19.38,0,0,0,443.13,531Z" fill="#f9b499"/>
<path d="M443.53,534.07s-8.18-1.3-13.59,8.87c0,0-9.08,13.2-23.36,18.82,0,0-8.73,2.87-12.94,8.7a6.88,6.88,0,0,0,2.3,10.14c4.25,2.2,12.42,3.95,27.94,1.58a62.12,62.12,0,0,0,10.31-2.55c4.66-1.57,12-4.17,19.25-7.18,1.2-.5,2.36-1.06,3.52-1.63A42.86,42.86,0,0,1,474.73,567s6.47,1,10.87-.13a3.67,3.67,0,0,0,2.68-3.63c-.3-7.44-1.6-29-6.63-26.09v2s-12.57,19.59-29.1,8.24C452.55,547.37,453,538.4,443.53,534.07Z" fill="#0071f2" data-primary="true"/>
<path d="M782.32,77.06s-25.31-7.38-39,17.4L684.78,489.33,727,482.48l51.66-229.64,29.53-132.55S811.84,87.08,782.32,77.06Z" fill="#bcbec0"/>
<ellipse cx="583.92" cy="115.69" rx="23.91" ry="30.91" transform="translate(-11.35 117.88) rotate(-11.42)" fill="#f9b499"/>
<path d="M605.36,158.83s1.89,15.5,15.19,13.39c0,0,23.2-2.92,22.39-38.62l-11.19-10.38s-9.46-1.09-10.59-12.38a6.23,6.23,0,0,1,.69-3.6c1.31-2.43,3.5-7.77.69-12.52,0,0-3.51-7.94-11.92-.83,0,0-3.86,3.71-.13,14,0,0,11.09,18,10.9,26.65C621.39,134.54,624.24,143.49,605.36,158.83Z" fill="#f9b499"/>
<path d="M599.56,162.36s2.28,19.7,5.8,22.95c0,0,11.51-6.07,14.33-11.47,0,0,13,8.44,24.23,7.14,0,0,7.79-10.6,8.65-42.83l-9.63-4.55s2.58,25.71-14.88,35.68c0,0-12.59,8.31-19.68-2.33a19.75,19.75,0,0,1-3-8.12Z" fill="#0071f2" data-primary="true"/>
<path d="M600.11,100.66c1.64,1.46-.53,4.16-.3,6,.43,3.32,2.21,6.22,4.17,8.93a9.44,9.44,0,0,1,1.54,4.5,12,12,0,0,1-1.54,7.4c-4,6.69-11.18,2.59-11.18,2.59a17,17,0,0,0-11.25-.58,19.86,19.86,0,0,0-12,9.08,16.37,16.37,0,0,0-1.49,3.24,5.46,5.46,0,0,0,1.8,5.82,7,7,0,0,1,2.19,3.7c1.3,12,10.06,13.79,10.06,13.79,19.23,3.12,32.42-14.14,36.92-21.15a17.6,17.6,0,0,0,2.43-8.65c-.31-8.59-5.75-18.52-9.2-24a21,21,0,0,1-3.38-10.76c-.06-3.11.58-5.22,1.76-6.61a8.08,8.08,0,0,1,5.49-2.83A6.53,6.53,0,0,1,622,93.83a10.16,10.16,0,0,1,1.91,6.71,12.59,12.59,0,0,1-2.14,6.51,5.51,5.51,0,0,0-.79,4.15c2.15,11,10.82,12,10.82,12-5.36-9.74-4.38-30-4.38-30-1.46-44.95-28.89-32.94-28.89-32.94C571.06,47.93,557.75,75,557.75,75a44.22,44.22,0,0,0-14.38,5.24c-5.54,3.37-9,9.9-7.68,16.26a12.7,12.7,0,0,0,3.49,6.31,17.73,17.73,0,0,0,11.68,5.1A24.62,24.62,0,0,0,575.77,93s7.14,3.57,18.49-2.11A21.53,21.53,0,0,0,600.11,100.66Z" fill="#2f2e41" data-secondary="true"/>
<path d="M649.66,200.29,622.8,273.72s24-16.06,34.21-53.79l4.43-18.5Z" opacity="0.2"/>
<polygon points="628.37 500.11 684.78 489.33 714.05 291.82 701.57 283.73 700.38 288.08 669.23 301.71 670.05 306.22 628.37 500.11" fill="#d1d3d4"/>
<path d="M661.44,201.43s-3.75,13.41-9,28.23a99.55,99.55,0,0,1-35,47.23,323.65,323.65,0,0,1-40.1,24.82s18.5,27.26,28.23,32.45c0,0,29.85-4.26,54.26-21,23.4-16,42.22-38.23,48.66-65.85.49-2.1.91-4.2,1.24-6.28" fill="#0071f2" data-primary="true"/>
<path d="M661.44,201.43s-3.75,13.41-9,28.23a99.55,99.55,0,0,1-35,47.23,323.65,323.65,0,0,1-40.1,24.82s18.5,27.26,28.23,32.45c0,0,29.85-4.26,54.26-21,23.4-16,42.22-38.23,48.66-65.85.49-2.1.91-4.2,1.24-6.28" fill="#fff" opacity="0.2"/>
<path d="M588.6,295.54s27.37,32,34.21,34.35c0,0-10.37,3.3-17.19,4.27,0,0-7.57-2.7-28.23-32.45Z" opacity="0.2"/>
<path d="M618.35,490.62c-2.62-19.05-12.46-106.71,27.44-169.8,0,0,8.69-11.2,17.65-14.83a8.15,8.15,0,0,1,10.85,5.21c1.39,4.53,2.7,12.34,2.59,25.57,0,0-15.82,131.08-44.82,160.6,0,0-4,5.51-9.65.91A11.93,11.93,0,0,1,618.35,490.62Z" fill="#bcbec0"/>
<ellipse cx="552.16" cy="223.01" rx="18.74" ry="22.72" fill="#f9b499"/>
<path d="M522.52,225.55A20.23,20.23,0,0,0,527,213.83c.35-5.69,2.82-19.78,18.63-23.76,0,0,.59-.16,1.62-.34,16.75-3,32.61,8.56,35.53,25.32a31.9,31.9,0,0,1,.49,4.88s.49,4.86,3.25,6.65c0,0,13.36,16.74-.86,26.91a10,10,0,0,1-3.31,1.5c-4.28,1.12-14,2.26-16.6-9.26a12.26,12.26,0,0,1,1-8.49s3.67-4.87,3.87-10.44c0,0,2.06-7.54-1.64-13.77,0,0-18.7,7.06-25-4.95,0,0,1.14,9.09,8.2,10.71,0,0-11,.63-13-12.17,0,0-6.61,9.59-5.7,18.18,0,0,1.88,20.6,18.68,20.93,0,0-1.93,15.09-16.75,14.11,0,0-18.38-.32-21.79-16.55,0,0,2,4.55,4.7,5.52,0,0-8.43-11.36,2.44-21.34A24.5,24.5,0,0,0,522.52,225.55Z" fill="#2f2e41" data-secondary="true"/>
<path d="M552.16,245.73s-.9,4.34-2.21,6.39c0,0,9.83,3.39,16.53-3.86,0,0-2.52-5.67.28-11C566.76,237.24,561.32,245.89,552.16,245.73Z" fill="#f4a992"/>
<path d="M559.43,254.54s-6.67,6.4-10.53-.75l1.05-1.67s9.59,3.55,16.53-3.86a9.94,9.94,0,0,0,4,5.41S564.57,261.47,559.43,254.54Z" fill="#0071f2" data-primary="true"/>
<path d="M559.43,254.54s-6.67,6.4-10.53-.75l1.05-1.67s9.59,3.55,16.53-3.86a9.94,9.94,0,0,0,4,5.41S564.57,261.47,559.43,254.54Z" opacity="0.2"/>
<circle cx="573.13" cy="222.32" r="5.15" fill="#f9b499"/>
<path d="M522.32,300.92l-.59-25.42s.81,5.28,14.77,5.28c0,0,13.36-.32,14.73-5.13,0,0,0,0,0,0v26.88a1.84,1.84,0,0,1-1.22,1.75c-4,1.42-17.36,5.25-27-1.94A1.81,1.81,0,0,1,522.32,300.92Z" fill="#2f2e41" data-secondary="true"/>
<path d="M533.42,270.23a18.05,18.05,0,0,1,3.08-4s-1.57,2.37-.84,4Z" opacity="0.2"/>
<path d="M550.78,303.82c-11.32,4.31-17.38-2.23-19.11-4.58a4.23,4.23,0,0,1-.82-1.88c-.24-1.53-.07-4.4,3.55-7a1.54,1.54,0,0,1,1.59-.1c1.77.92,6.07,2.88,8,1.36,0,0-6.86-4.43-3.18-5.87a29,29,0,0,1,10,3.27,8.08,8.08,0,0,1,3.4,3.86C555.4,295.81,556.29,300.68,550.78,303.82Z" fill="#f9b499"/>
<path d="M524.49,296.35s-8.92,3.41-12.66-5.35a12,12,0,0,1,6.88-8.66s3.51-1.4,4.64-2.86c0,0,2.6,1.41-.16,6.3l2.85.84a3.83,3.83,0,0,1,2.54,5A8.07,8.07,0,0,1,524.49,296.35Z" fill="#f9b499"/>
<ellipse cx="536.5" cy="275.5" rx="14.77" ry="5.27" fill="#2f2e41" data-secondary="true"/>
<ellipse cx="536.5" cy="275.5" rx="14.77" ry="5.27" opacity="0.2"/>
<path d="M600.1,329.9s-36.67,29.9-47.21,21.78c0,0-11,4.22-12.34-1.13,0,0-11,3.89-7.95-3.08,0,0,11-5.36,16.23-10.71,0,0-24.18,9.57-24.5,2.59,0,0-1.75-4,14.32-8.66a24,24,0,0,0,6.26-2.83c4-2.55,10.4-7.13,13.49-11.87,0,0-18.43-.33-16.38-7.31,0,0,1.75-3.35,15.39-2.08,0,0,15.44,2.89,22.26-1.65C579.67,305,594.57,325.65,600.1,329.9Z" fill="#f9b499"/>
<path d="M507.78,346.33s.53,5.92,2.44,9.49A4.25,4.25,0,0,0,513.7,358c6.59.46,29,1.39,39.19-6.32,0,0-10.37,4-12.34-1.13,0,0-8.34,3-8.49-1a9.16,9.16,0,0,1,.54-2.1l2.17-1.12Z" fill="#0071f2" data-primary="true"/>
<path d="M507.78,346.33s.53,5.92,2.44,9.49A4.25,4.25,0,0,0,513.7,358c6.59.46,29,1.39,39.19-6.32,0,0-10.37,4-12.34-1.13,0,0-8.34,3-8.49-1a9.16,9.16,0,0,1,.54-2.1l2.17-1.12Z" fill="#fff" opacity="0.2"/>
<polygon points="288.94 511.09 288.94 569.4 352.09 569.4 355.62 530.96 288.94 511.09" fill="#0071f2" data-primary="true"/>
<polygon points="378.28 522.23 355.62 530.96 288.94 511.09 314.57 500.31 378.28 522.23" fill="#0071f2" data-primary="true"/>
<polygon points="378.28 522.23 355.62 530.96 288.94 511.09 314.57 500.31 378.28 522.23" opacity="0.1"/>
<polygon points="352.09 569.4 355.62 530.96 378.28 522.23 370.85 563.19 352.09 569.4" fill="#0071f2" data-primary="true"/>
<polygon points="352.09 569.4 355.62 530.96 378.28 522.23 370.85 563.19 352.09 569.4" fill="#fff" opacity="0.1"/>
<path d="M321.07,569.4,322.28,521,330.1,514l34,13.76v37.72l2.46-.81.39-38-26.75-11.86s23.2,3.9,23.53-19.46c0,0-4.22,22.51-28.07,15.8h-6.33l-18.35-9.25-2.89,1.21,19.29,10.09L318.93,520l-1.16,49.37Z" fill="#d1d3d4"/>
<path d="M351,482.14c-11.36-5.19-18.17,18.17-18.17,18.17.3-14.46-2.28-22-5.09-26s-8.95-4.89-12.5-1.39c-6.69,6.59,5.9,18.95,5.9,18.95s9.9,10.67,8.12,19.21h6.33c-.22-1.47,1.18-3.71,2.83-5.78a37.5,37.5,0,0,1,6.52-6.38C359.58,487.79,351,482.14,351,482.14ZM318.74,474s9.57-9.26,11.85,26.28C330.59,500.31,311.28,481.33,318.74,474Zm31.36,14.23c-1.08,3.22-5,8.63-16.49,17.25,0,0,3.48-18,12.75-21A3,3,0,0,1,350.1,488.26Z" fill="#d1d3d4"/>
<polygon points="223.02 524.36 223.02 575.72 281.5 575.72 281.5 541.76 223.02 524.36" fill="#ccc"/>
<polygon points="246.05 514.75 223.02 524.36 281.5 541.76 302.21 533.31 246.05 514.75" fill="#ccc"/>
<polygon points="246.05 514.75 223.02 524.36 281.5 541.76 302.21 533.31 246.05 514.75" opacity="0.1"/>
<polygon points="302.21 533.31 281.5 541.76 281.5 575.72 294.92 570.75 302.21 533.31" fill="#ccc"/>
<polygon points="302.21 533.31 281.5 541.76 281.5 575.72 294.92 570.75 302.21 533.31" fill="#fff" opacity="0.1"/>
<polygon points="252.26 575.72 252.26 533.06 259.3 527.01 288.77 538.79 290.01 572.57 292.81 571.53 291.86 537.53 262.62 524.36 267.44 521.82 264.41 520.82 259.3 523.53 242.87 516.08 239.69 517.41 256.32 525.19 247.74 531.71 248.7 575.72 252.26 575.72" fill="#2f2e41" data-secondary="true"/>
</svg>