 <!DOCTYPE svg PUBLIC "-//W3C//DTD SVG 1.1//EN" "http://www.w3.org/Graphics/SVG/1.1/DTD/svg11.dtd">
<svg id="e3c83b75-4e99-4d71-9345-606348d610b6" data-name="Layer 1" xmlns="http://www.w3.org/2000/svg" width="865.76" height="682.89" viewBox="0 0 865.76 682.89">
<defs>
<style xmlns="http://www.w3.org/1999/xhtml">*, ::after, ::before { box-sizing: border-box; }
img, svg { vertical-align: middle; }
</style>
<style xmlns="http://www.w3.org/1999/xhtml">*, body, html { -webkit-font-smoothing: antialiased; }
img, svg { max-width: 100%; }
</style>
</defs>
<path d="M227.57,174.79c-3.67-10.66-13.3-19.24-19.77-24a21.33,21.33,0,0,0-12.7-4.2h0a1.81,1.81,0,0,0-1.81,1.81h0a1.82,1.82,0,0,0,1.81,1.82h0a10.56,10.56,0,0,1,6.72,2.41l2.68,2.2s-8.9,6.59-4.29,13.84c0,0,7.4,7.48,15.16,10.39Z" fill="#f9b499"/>
<circle cx="607.75" cy="136.97" r="116.38" fill="#a7a9ac"/>
<rect x="232.38" y="182.71" width="247.85" height="483.96" rx="32.74" fill="#a7a9ac"/>
<rect x="222.43" y="182.71" width="247.85" height="483.96" rx="24.62" fill="#d1d3d4"/>
<path d="M409.85,190.13h27.23s21.49,2.15,22.92,23.65l1.44,418.44s0,23.51-25.8,23.33H254.37s-22-2.55-22-31.93V215.78s3.36-28.51,28.43-25.65l22.93-.2s-4.3,18.83,11.47,18.83l104.61-1.43S412,210.2,409.85,190.13Z" fill="#fafafa"/>
<rect x="305.95" y="189.93" width="76.67" height="8.76" rx="4.18" fill="#fff"/>
<circle cx="393.45" cy="194.31" r="4.38" fill="#fff"/>
<path d="M341.78,452.62a69.74,69.74,0,1,1,69.74-69.74A69.82,69.82,0,0,1,341.78,452.62Zm0-136.14a66.4,66.4,0,1,0,66.4,66.4A66.47,66.47,0,0,0,341.78,316.48Z" fill="#a7a9ac"/>
<circle cx="340.09" cy="410.64" r="7.94" fill="#a7a9ac"/>
<path d="M322.44,395.61a1.67,1.67,0,0,1-.74-3.17c.9-.44,22.28-10.78,35.66.21a1.67,1.67,0,1,1-2.12,2.58c-11.73-9.63-31.87.11-32.07.21A1.59,1.59,0,0,1,322.44,395.61Z" fill="#a7a9ac"/>
<path d="M311.69,381.68a1.67,1.67,0,0,1-.89-3.09,75.91,75.91,0,0,1,20.11-8.27c15-3.67,27.41-.7,35.76,8.57a1.67,1.67,0,0,1-2.49,2.24c-18.2-20.22-51.28.09-51.61.3A1.66,1.66,0,0,1,311.69,381.68Z" fill="#a7a9ac"/>
<path d="M377.61,368.23a1.67,1.67,0,0,1-1.11-.42c-14.67-12.88-32.56-17.85-50.84-12.74a52.73,52.73,0,0,0-22.22,12.77,1.67,1.67,0,1,1-2.14-2.57,55.66,55.66,0,0,1,23.34-13.39c13.4-3.77,34.63-3.65,54.07,13.42a1.67,1.67,0,0,1-1.1,2.93Z" fill="#a7a9ac"/>
<rect x="310.01" y="491.04" width="69.26" height="9.86" rx="4.71" fill="#a7a9ac"/>
<rect x="297.52" y="520.18" width="100.32" height="9.86" rx="4.71" fill="#a7a9ac"/>
<rect x="488.08" y="382.04" width="76.88" height="1.67" fill="#d1d3d4"/>
<rect x="598.62" y="255.87" width="1.67" height="76.88" fill="#d1d3d4"/>
<circle cx="598.52" cy="374.48" r="30.21" fill="#a7a9ac"/>
<path d="M717.53,133.17c-1.81,54-46.92,116.38-116.38,116.38A116.38,116.38,0,0,1,484.77,133.17c0-69.35,62.21-114.63,116.38-116.39,47.47-1.53,80.06,30.63,83.6,34.23C688.56,54.89,719.08,86.93,717.53,133.17Z" fill="#d1d3d4"/>
<path d="M611.19,389a1.37,1.37,0,0,1-1-.43l-24.36-25.51a1.39,1.39,0,1,1,2-1.93l24.37,25.52a1.39,1.39,0,0,1-.05,2A1.42,1.42,0,0,1,611.19,389Z" fill="#fff"/>
<path d="M586.25,388.05a1.39,1.39,0,0,1-1-2.4l25.51-24.36a1.39,1.39,0,0,1,1.93,2l-25.52,24.36A1.37,1.37,0,0,1,586.25,388.05Z" fill="#fff"/>
<path d="M491.37,102.81s4.91,7.08,33.09-8.21c0,0,11-6.4,19.11,4.92,0,0,18.63,26.13,33,8.93,0,0,27.78-27.31,5.29-89.6C581.82,18.85,513.2,27,491.37,102.81Z" fill="#a7a9ac"/>
<path d="M700.18,72c-8.17-6.42-43.37,3.25-43.37,3.25-26.51,7.17-17.68-22.92-17.68-22.92,1-7.89-2.63-11.23-2.63-11.23s-8.38-7.48-2-17.44C634.45,23.66,679.26,31.9,700.18,72Z" fill="#a7a9ac"/>
<path d="M612.69,116.15c-4.16,4.29-9.05,13.07-4.16,28.76,0,0,5,12.94,16.55,17.83a18.47,18.47,0,0,1,11.19,18l0,.45s-13.38,45.54-3.82,51.9c0,0,14.1,10.36,30.53-19.25a31.55,31.55,0,0,1,6.85-8.48c8.4-7.31,26.5-24.88,29.17-42.64,0,0,3.51-36-36-33.76,0,0-22.19-19.21-41.13-17.23A14.93,14.93,0,0,0,612.69,116.15Z" fill="#a7a9ac"/>
<path d="M498.16,187.4s21.1-8.27,34-8.87a10.77,10.77,0,0,1,11,8.75l0,.12c-.24,1,2.46,7.66,11.79,9.38a15.6,15.6,0,0,1,11,12.27,19.54,19.54,0,0,1-.35,8.4c-1.41,5.58-5.13,19-9.51,23.88C556.19,241.33,519.64,227.62,498.16,187.4Z" fill="#a7a9ac"/>
<path d="M107.59,664.38h6.59V647.24s10.47,19.55,33.66,18.13a5.22,5.22,0,0,0,4.46-7.31c-5.26-12-18.28-24.16-44.71-27Z" fill="#0071f2" data-primary="true"/>
<path d="M186.66,664.38H194V647.24a41.54,41.54,0,0,0,37.37,18.13c4-.22,6.57-4,5-7.31-5.84-12-20.3-24.16-49.65-27Z" fill="#0071f2" data-primary="true"/>
<path d="M168.08,198.31H126.87a23.87,23.87,0,0,0-14.17,4.5c-4.72,3.47-9.19,9.48-8.76,19.75.07,1.6.11,3.21.1,4.82-.09,15.62.49,88.48,18.93,88.48L120,334.76h72.51l10-95.81s58.45,47,53.62,7.91c0,0-18-55.81-28.57-72.07l-16.26,4.39s11.86,36,13.62,45.27c0,0,2.2,7.47-10.11-5.71,0,0-.54-.62-1.55-1.64A63.42,63.42,0,0,0,168.08,198.31Z" fill="#0071f2" data-primary="true"/>
<path d="M133.64,197.49l2.86,94.71h41.31v20.21s-68.63,14.67-69-5.27l-2.25-33.44q-.94-9.66-1.55-19.94c-.72-12.56-.93-24.52-.75-35.84a4.06,4.06,0,0,1,.14-.92,28,28,0,0,1,5.6-12.42C114.16,199.56,123.27,196.14,133.64,197.49Z" fill="#0071f2" data-primary="true"/>
<g opacity="0.2">
<path d="M133.64,197.49l2.86,94.71h41.31v20.21s-68.63,14.67-69-5.27l-2.25-33.44q-.94-9.66-1.55-19.94c-.72-12.56-.93-24.52-.75-35.84a4.06,4.06,0,0,1,.14-.92,28,28,0,0,1,5.6-12.42C114.16,199.56,123.27,196.14,133.64,197.49Z"/>
</g>
<path d="M177.47,298.72s5.71-9.67,10.11-9.67c0,0,4.5.66,0,9.67,0,0,18.56,1.21,21.53,0,0,0-3.3,11.32-7.91,13H177.47Z" fill="#f9b499"/>
<path d="M120,334.76s-33.55,42.85-5.86,149c0,0,62.63,15.16,102.84-3.3-2.29-27.33-6-56.92-11.86-88.33-3.75-20.21-8-39.35-12.61-57.36Z" fill="#2f2e41" data-secondary="true"/>
<path d="M111.54,634.05s3.83-122,7.19-149.32a182.22,182.22,0,0,0,35,4.5l-25,144.82s6.64,7.38,9.44,13.3a3.87,3.87,0,0,1-5.18,5.16C128.85,650.57,122.22,645.59,111.54,634.05Z" fill="#f9b499"/>
<path d="M177.47,489.28,190,631.42s17.14,21.09,27,18.46c0,0,6.59-1.32-7.91-19.12,0,0,7.91-109.13,0-147.19C209.11,483.57,190.66,489,177.47,489.28Z" fill="#f9b499"/>
<path d="M161.68,210.83h0a9.65,9.65,0,0,1-9.64-9.64v-31.8l19.27,16.4v15.4A9.64,9.64,0,0,1,161.68,210.83Z" fill="#f9b499"/>
<path d="M171.31,193.18v-2.61s-8.78,1.81-14.11-4.54C157.2,186,159.25,193.07,171.31,193.18Z" fill="#f7a48b"/>
<ellipse cx="168.02" cy="163.34" rx="19.56" ry="27.23" fill="#f9b499"/>
<path d="M156,190.57s-15.8-.29-26-9.63V140.19s-.15-14.19,22.86-17.7c0,0,27.68-5.28,34.54,12.83l3.47,46.34a8.3,8.3,0,0,1-8.27,8.91h-8.21v-1.49s11-4.47,10.11-18.25l.34-12.62a9.67,9.67,0,0,0-2.55-6.78l-7-7.59a2.44,2.44,0,0,0-4,.68c-2.23,5.16-7.37,14.73-16.65,20.6Z" fill="#2f2e41" data-secondary="true"/>
</svg>