 <!DOCTYPE svg PUBLIC "-//W3C//DTD SVG 1.1//EN" "http://www.w3.org/Graphics/SVG/1.1/DTD/svg11.dtd">
<svg id="aa2c355f-3ab4-41f5-b3d7-4a8dac3b2d6c" data-name="Layer 1" xmlns="http://www.w3.org/2000/svg" width="865.76" height="682.89" viewBox="0 0 865.76 682.89">
<defs>
<style xmlns="http://www.w3.org/1999/xhtml">*, ::after, ::before { box-sizing: border-box; }
img, svg { vertical-align: middle; }
</style>
<style xmlns="http://www.w3.org/1999/xhtml">*, body, html { -webkit-font-smoothing: antialiased; }
img, svg { max-width: 100%; }
</style>
</defs>
<ellipse cx="643.78" cy="627.23" rx="32.23" ry="5.66" transform="translate(-176.45 259.68) rotate(-20.12)" fill="#2f2e41" data-secondary="true"/>
<ellipse cx="643.78" cy="627.23" rx="32.23" ry="5.66" transform="translate(-176.45 259.68) rotate(-20.12)" opacity="0.2"/>
<path d="M75.11,465.74A1.11,1.11,0,0,1,74,464.65v-4.21a1.09,1.09,0,0,1,2.18,0v4.21A1.09,1.09,0,0,1,75.11,465.74Z" fill="#ba68c8"/>
<path d="M788.76,515.49s11.59-27.9-3-46.18a1,1,0,0,0-1.42-.05,1,1,0,0,0-.25.38C782.64,474.32,780.25,488.66,788.76,515.49Z" fill="#3f3d56"/>
<path d="M788.76,515.49s11.59-27.9-3-46.18a1,1,0,0,0-1.42-.05,1,1,0,0,0-.25.38C782.64,474.32,780.25,488.66,788.76,515.49Z" fill="#2f2e41" data-secondary="true"/>
<g id="a7e9f498-148f-44e9-9bca-1621d8b01602" data-name="freepik--background-complete--inject-4">
<rect x="675.04" y="41.9" width="12.02" height="59.81" transform="translate(-0.38 3.69) rotate(-0.31)" fill="#e0e0e0"/>
<rect x="570.85" y="42.09" width="31.12" height="33.03" transform="matrix(1, -0.01, 0.01, 1, -0.31, 3.17)" fill="#ebebeb"/>
<rect x="601.82" y="41.94" width="31.12" height="33.03" transform="translate(-0.31 3.34) rotate(-0.31)" fill="#f5f5f5"/>
<path d="M570.8,51.34c20.68.17,41.42,0,62.1-.28a.34.34,0,0,0,0-.67q-31-.18-62.12.39a.28.28,0,0,0,0,.56Z" fill="#e0e0e0"/>
<rect x="551.42" y="74.64" width="56.56" height="26.92" transform="translate(-0.47 3.14) rotate(-0.31)" fill="#ebebeb"/>
<rect x="607.7" y="74.33" width="56.56" height="26.92" transform="translate(-0.47 3.44) rotate(-0.31)" fill="#f5f5f5"/>
<path d="M551.38,82.3c37.57.44,75.27,0,112.84-.55a.34.34,0,0,0,0-.67h0c-37.59-.18-75.29-.16-112.84.65a.3.3,0,0,0-.29.29A.28.28,0,0,0,551.38,82.3Z" fill="#e0e0e0"/>
<rect x="530.22" y="101.74" width="219.13" height="9.63" fill="#e0e0e0"/>
<rect x="566.1" y="106.36" width="8.9" height="32.89" fill="#e0e0e0"/>
<rect x="698.88" y="106.36" width="8.9" height="32.89" fill="#e0e0e0"/>
<rect x="687.45" y="16.4" width="12.02" height="82.27" transform="translate(-0.54 6.94) rotate(-0.57)" fill="#ebebeb"/>
<rect x="698.92" y="34.92" width="18.68" height="66.67" transform="translate(-0.36 3.83) rotate(-0.31)" fill="#f5f5f5"/>
<path d="M717.29,47.75a135.27,135.27,0,0,1-18.67,0A132.2,132.2,0,0,1,717.29,47.75Z" fill="#e0e0e0"/>
<path d="M717.29,45a138.48,138.48,0,0,1-18.67,0A138.48,138.48,0,0,1,717.29,45Z" fill="#e0e0e0"/>
<path d="M717.29,91.54a132.2,132.2,0,0,1-18.67,0A135.27,135.27,0,0,1,717.29,91.54Z" fill="#e0e0e0"/>
<path d="M717.29,88.75a138.48,138.48,0,0,1-18.67,0A129.27,129.27,0,0,1,717.29,88.75Z" fill="#e0e0e0"/>
<path d="M708.25,82.62c-.18,0-.33-6.68-.33-15s.15-15,.33-15,.32,6.68.32,15S708.44,82.62,708.25,82.62Z" fill="#e0e0e0"/>
<rect x="717.49" y="51.28" width="20.34" height="50.33" fill="#ebebeb"/>
<path d="M695.9,33.63a3.46,3.46,0,1,1-3.48-3.44h0a3.44,3.44,0,0,1,3.46,3.42Z" fill="#e0e0e0"/>
<rect x="691.37" y="43.15" width="2.14" height="48.94" fill="#e0e0e0"/>
<rect x="111.71" y="25.11" width="157.28" height="163.96" fill="#e0e0e0"/>
<rect x="122.34" y="25.11" width="157.28" height="163.96" fill="#fafafa"/>
<path d="M122.29,25.08H279.67V189.14H122.29Zm157.28.1H122.39V189H279.57Z" fill="#e0e0e0"/>
<rect x="143.48" y="47.15" width="115" height="119.87" fill="#fafafa"/>
<path d="M258.48,167.78a18.47,18.47,0,0,0,2.84,3.34c1.84,1.94,4.42,4.56,7.31,7.41s5.55,5.4,7.52,7.18a17.39,17.39,0,0,0,3.34,2.77,18.82,18.82,0,0,0-2.83-3.34c-1.83-1.93-4.42-4.55-7.33-7.41s-5.56-5.41-7.53-7.21A18.2,18.2,0,0,0,258.48,167.78Z" fill="#e0e0e0"/>
<path d="M143.48,167.54a19.3,19.3,0,0,0-3.34,2.84c-1.93,1.84-4.57,4.41-7.41,7.32s-5.39,5.54-7.2,7.49a20.15,20.15,0,0,0-2.77,3.34,18.36,18.36,0,0,0,3.34-2.82c1.94-1.83,4.58-4.42,7.43-7.31s5.39-5.58,7.2-7.53A18.32,18.32,0,0,0,143.48,167.54Z" fill="#e0e0e0"/>
<path d="M143.8,47.55A18.47,18.47,0,0,0,141,44.21c-1.84-1.93-4.41-4.55-7.31-7.39s-5.55-5.4-7.52-7.2a18.15,18.15,0,0,0-3.34-2.77,18.41,18.41,0,0,0,2.83,3.34c1.83,1.94,4.42,4.56,7.33,7.43s5.57,5.39,7.53,7.2A18.15,18.15,0,0,0,143.8,47.55Z" fill="#e0e0e0"/>
<path d="M258.86,47.79A19.3,19.3,0,0,0,262.2,45c2-1.84,4.58-4.43,7.42-7.31s5.39-5.56,7.19-7.52a19,19,0,0,0,2.78-3.34,17.7,17.7,0,0,0-3.34,2.82c-1.94,1.84-4.58,4.43-7.43,7.33s-5.4,5.56-7.2,7.52A17,17,0,0,0,258.86,47.79Z" fill="#e0e0e0"/>
<path d="M143.8,167a5.61,5.61,0,0,0,0-.58v-8.15c0-5.68,0-13.94.12-24.43,0-21,.13-50.91.23-86.71l-.45.43H258.36l-.5-.5V167l.44-.45-83,.23-23.38.12h-.23l23.22.1,83.31.23h.68v-.43c0-34.72,0-75.88.09-119.88v-.51H143.3v.45c0,35.91.17,65.94.22,87,0,10.45.08,18.67.11,24.33v8.05A2.41,2.41,0,0,0,143.8,167Z" fill="#e0e0e0"/>
<rect x="181.79" y="87.91" width="38.37" height="38.37" fill="#ebebeb"/>
<polygon points="200.25 478.3 200.25 665.02 468.42 665.02 478.09 479.61 200.25 478.3" fill="#e0e0e0"/>
<rect x="209.91" y="479.61" width="268.17" height="185.01" fill="#fff"/>
<path d="M208.64,478.34H479.36V665.89H208.64Zm268.16,2.53H211.18V663.35H476.8Z" fill="#e0e0e0"/>
<rect x="238.96" y="502.6" width="210.08" height="139.04" fill="#fff"/>
<path d="M239,502.6h15.56l43.28.17,151.24.3-.61-.6v139h0l.67-.67L239,641l.51.53c-.11-42.33-.2-77-.26-101.17,0-12.07-.1-21.51-.14-28v-.22c0,6.45,0,15.83-.13,27.86,0,24.24-.17,59-.28,101.5V642h.53l210.08.13H450v-.65h0V501.85h-.61l-151.64.3-43.14.16H240.26A10.88,10.88,0,0,1,239,502.6Z" fill="#e0e0e0"/>
<path d="M478.09,479.09a22.2,22.2,0,0,0-4.63,3c-2.73,2-6.47,4.79-10.5,8s-7.58,6.28-10,8.57a21.71,21.71,0,0,0-3.84,3.94c.25.27,6.68-5,14.75-11.47S478.32,479.39,478.09,479.09Z" fill="#e0e0e0"/>
<path d="M209.91,479.61c-.22.28,6.09,5.66,14.11,12s14.71,11.27,15,11-6.09-5.68-14.11-12S210.14,479.32,209.91,479.61Z" fill="#e0e0e0"/>
<path d="M210.12,664.65,240,640.41" fill="#fff"/>
<path d="M240,640.41c-.23-.29-7.11,4.92-15.38,11.6s-14.76,12.36-14.53,12.64,7.12-4.91,15.37-11.6S240.25,640.71,240,640.41Z" fill="#e0e0e0"/>
<path d="M478.09,664.62c.22-.29-6-5.61-14-11.89s-14.54-11.14-14.77-10.84,6,5.6,14,11.87S477.86,664.9,478.09,664.62Z" fill="#e0e0e0"/>
<polygon points="400.11 610.97 400.11 577.99 339.23 535.41 278.33 578.91 278.33 610.97 400.11 610.97" fill="#ebebeb"/>
<path d="M398.66,577.66c0-.09-26.92-.15-60.11-.15s-60.12,0-60.12.15,26.92.16,60.12.16S398.66,577.76,398.66,577.66Z" fill="#f5f5f5"/>
<g opacity="0.2">
<polygon points="324.34 582.8 324.34 610.92 311.25 610.92 311.25 583.37 311.25 582.8 324.34 582.8"/>
</g>
<g opacity="0.2">
<path d="M340.68,534.37l-61.93,43.14v6.42l60.88-42.39S399.93,578,400.51,578Z"/>
</g>
<path d="M351,611V577.94C351,596.22,350.94,611,351,611Z" fill="#f5f5f5"/>
<path d="M346.78,610.92V576.24C346.78,595.41,346.74,610.92,346.78,610.92Z" fill="#f5f5f5"/>
<path d="M342.72,610.92V574.83C342.72,594.77,342.69,610.92,342.72,610.92Z" fill="#f5f5f5"/>
<path d="M338.65,610.92V573.6C338.65,594.22,338.61,610.92,338.65,610.92Z" fill="#f5f5f5"/>
<path d="M334.59,610.92V575.18C334.59,594.92,334.56,610.92,334.59,610.92Z" fill="#f5f5f5"/>
<path d="M330.51,610.92V576.24C330.51,595.41,330.48,610.92,330.51,610.92Z" fill="#f5f5f5"/>
<path d="M326.46,610.92v-33C326.46,596.12,326.42,610.92,326.46,610.92Z" fill="#f5f5f5"/>
<path d="M318.33,610.92V580.86C318.33,597.56,318.29,610.92,318.33,610.92Z" fill="#f5f5f5"/>
<path d="M314.25,610.92V581.71C314.25,597.84,314.22,610.92,314.25,610.92Z" fill="#f5f5f5"/>
<path d="M310.19,610.92V583C310.19,598.43,310.16,610.92,310.19,610.92Z" fill="#f5f5f5"/>
<path d="M306.12,610.92v-27C306.12,598.85,306.09,610.92,306.12,610.92Z" fill="#f5f5f5"/>
<path d="M354.89,610.65V578.92C354.89,596.44,354.84,610.65,354.89,610.65Z" fill="#f5f5f5"/>
<path d="M358.67,548.87v31C358.67,562.76,358.7,548.87,358.67,548.87Z" fill="#f5f5f5"/>
<path d="M366.21,611.13V581.76C366.21,598,366.18,611.13,366.21,611.13Z" fill="#f5f5f5"/>
<path d="M370,611V582.58C370,598.24,370,611,370,611Z" fill="#f5f5f5"/>
<path d="M373.76,611V583.43C373.76,598.64,373.73,611,373.76,611Z" fill="#f5f5f5"/>
<path d="M393,572.58v18.95C393,581.06,393,572.58,393,572.58Z" fill="#f5f5f5"/>
<path d="M396.52,572.58v18.95C396.52,581.06,396.55,572.58,396.52,572.58Z" fill="#f5f5f5"/>
<path d="M381.44,610.65V588C381.44,600.51,381.41,610.65,381.44,610.65Z" fill="#f5f5f5"/>
<path d="M377.42,610.82s.13-10.64.22-23.78.13-23.76.1-23.76-.14,10.64-.22,23.76S377.42,610.82,377.42,610.82Z" fill="#f5f5f5"/>
<path d="M385.5,610.73V589.59C385.5,601.28,385.47,610.73,385.5,610.73Z" fill="#f5f5f5"/>
<path d="M389.22,610.65V590.88C389.22,601.8,389.19,610.65,389.22,610.65Z" fill="#f5f5f5"/>
<path d="M302.18,611V585.72C302.18,599.68,302.14,611,302.18,611Z" fill="#f5f5f5"/>
<path d="M298,610.88V587.39C298,600.36,298,610.88,298,610.88Z" fill="#f5f5f5"/>
<path d="M294.3,611V588.68C294.3,601,294.26,611,294.3,611Z" fill="#f5f5f5"/>
<path d="M289.79,611.13V589.79C289.79,601.57,289.76,611.13,289.79,611.13Z" fill="#f5f5f5"/>
<path d="M285,611.13v-19.4C285,602.44,285,611.13,285,611.13Z" fill="#f5f5f5"/>
<path d="M280.42,611.13V593.37C280.42,603.17,280.39,611.13,280.42,611.13Z" fill="#f5f5f5"/>
<polygon points="276.51 580.54 339.1 536.28 403.72 580.54 405.24 578.09 339.67 532.17 274.91 578.76 276.51 580.54" fill="#e0e0e0"/>
<polyline points="327.21 582.8 327.39 611.03 351.12 611.03 351.25 582.8" fill="#f5f5f5"/>
<polyline points="351.25 582.8 364.36 582.8 364.36 610.92 351.25 610.92 351.25 583.37" fill="#e0e0e0"/>
<path d="M351.25,583.37V611.1h13.36V582.7h-.12l-.1-.12V610.7l.15-.15H351.45l.15.15V583.15Z" fill="#e0e0e0"/>
<polygon points="327.21 582.8 327.21 610.92 314.1 610.92 314.1 583.37 314.1 582.8 327.21 582.8" fill="#e0e0e0"/>
<path d="M327.19,582.8H314V611l.16.15h13.2V611l.13-.15H314.37l.15.15V582.92l-.12.11h13.09Z" fill="#e0e0e0"/>
<rect x="333.44" y="549.34" width="10.42" height="13.86" fill="#f5f5f5"/>
<path d="M338.58,563.15q.33-6.9,0-13.8c-.08,0-.15,3.09-.15,6.9S338.5,563.15,338.58,563.15Z" fill="#e0e0e0"/>
<path d="M333.39,556a92.48,92.48,0,0,0,10.53,0A80.43,80.43,0,0,0,333.39,556Z" fill="#e0e0e0"/>
<path d="M258.66,611c0,.26,34.75.5,77.62.5s77.61-.24,77.61-.5-34.75-.5-77.61-.5S258.66,610.65,258.66,611Z" fill="#e0e0e0"/>
<rect x="37.43" y="445.68" width="10.17" height="218.69" fill="#e0e0e0"/>
<rect x="49.16" y="447.36" width="146.01" height="217.31" rx="0.15" fill="#f5f5f5"/>
<path d="M47.45,666.2V445.79a.15.15,0,0,1,.15-.15H196.7a.15.15,0,0,1,.15.15V666.2a.15.15,0,0,1-.15.15H47.6A.15.15,0,0,1,47.45,666.2Zm146-3.34V449.2a.15.15,0,0,0-.15-.15H51a.15.15,0,0,0-.15.15V662.83A.15.15,0,0,0,51,663H193.31a.15.15,0,0,0,.15-.15Z" fill="#ebebeb"/>
<rect x="63.6" y="460.77" width="116.85" height="190.36" rx="0.15" fill="#fafafa"/>
<rect x="89.33" y="514.72" width="65.62" height="76.91" rx="0.1" fill="#ebebeb"/>
<path d="M94.54,582.26c-.08.25,3.16,1.67,9.32,1a22.86,22.86,0,0,0,10.47-4.3,21.23,21.23,0,0,0,8.13-12.79,18.38,18.38,0,0,0-6.23-17.5,16.13,16.13,0,0,0-4.71-2.75,12.5,12.5,0,0,0-5.91-.69,10.28,10.28,0,0,0-5.89,2.58,7.66,7.66,0,0,0-2.32,6.88,11,11,0,0,0,3.24,5.91,21.14,21.14,0,0,0,5,3.64,27.06,27.06,0,0,0,11.78,3.34A23.6,23.6,0,0,0,130,564.68a22.84,22.84,0,0,0,9.25-9.58,19.58,19.58,0,0,0,1.67-13.36,20,20,0,0,0-7.08-11.07,17.37,17.37,0,0,0-5.93-3,14.78,14.78,0,0,0-6.68-.22,11,11,0,0,0-6.06,3.42,10,10,0,0,0-2.38,6.48,12.29,12.29,0,0,0,1.66,6.18,16.72,16.72,0,0,0,3.75,4.49,25.1,25.1,0,0,0,9.3,5,23.66,23.66,0,0,0,9.76.75,19.94,19.94,0,0,0,8.52-3.34,18.33,18.33,0,0,0,8.13-12.87,15.49,15.49,0,0,0-3-11,13.15,13.15,0,0,0-5.71-4.39c-1.54-.58-2.41-.55-2.46-.42s.71.56,1.94,1.39a14.33,14.33,0,0,1,4.34,4.66,13.7,13.7,0,0,1,1.77,9.4,15.41,15.41,0,0,1-7.23,10,17.74,17.74,0,0,1-14.91,1.42,21.11,21.11,0,0,1-7.45-4.21,9.24,9.24,0,0,1-3.49-7,5,5,0,0,1,4.5-5,9.87,9.87,0,0,1,4.29.2,12.16,12.16,0,0,1,4,2.13,14.74,14.74,0,0,1,5.11,8.13,14.27,14.27,0,0,1-1.25,9.75,17.53,17.53,0,0,1-7.07,7.33,18.29,18.29,0,0,1-9.72,2.27,22.05,22.05,0,0,1-9.55-2.62,17,17,0,0,1-3.8-2.67,6.61,6.61,0,0,1-1.94-3,2.75,2.75,0,0,1,.78-2.54,5.75,5.75,0,0,1,3.16-1.39,8.08,8.08,0,0,1,3.72.3,12.33,12.33,0,0,1,3.48,2,14.46,14.46,0,0,1,5.27,13.36,18.56,18.56,0,0,1-6.24,11.08,22.06,22.06,0,0,1-9,4.48C97.91,582.4,94.57,581.75,94.54,582.26Z" fill="#e0e0e0"/>
<rect x="94.49" y="327.69" width="204.72" height="338.87" fill="#e0e0e0"/>
<rect x="101.3" y="327.69" width="204.72" height="338.87" fill="#ebebeb"/>
<rect x="110" y="334.57" width="187.28" height="325.12" fill="#fafafa"/>
<rect x="146.49" y="376.8" width="115.16" height="240.63" fill="#ebebeb"/>
<path d="M261.64,532.29c.26-22.48-19.94-44.44-42.2-47.56-10.62-1.5-21.89.6-31.73-3.45-17.69-7.27-23.37-30.8-41.16-37.77l-.8,173.92h116Z" fill="#e0e0e0"/>
</g>
<g id="a67c4ab7-d27e-480e-b671-fb7bc5196c36" data-name="freepik--Floor--inject-4">
<path d="M779.18,665.62h5.28v.13c-24.06.22-178.11.39-364.31.39l-261.37-.22-79.2-.17H58l21.54-.08,79.2-.13,261.37-.12c186.2,0,340.25.15,364.31.37v0h-4.14Z" fill="#263238"/>
</g>
<path d="M518.37,342.62s-6.45-9.91-3.41-16.92a17.31,17.31,0,0,0-.81,16.92s-15.52-16.71,4.22-30c0,0,6.46-2.28,1.9-9.87,0,0-7.59-5.7,3.8-15.95,0,0,37.59-42.52,49-15.57,0,0,17.09-8.35,18.23,12.15,0,0-.33,3.93,6,7.84a17.06,17.06,0,0,1,6,5.89c2.26,3.9,3.85,10.15.18,18.92,0,0-7.16,10.33,5.14,15.15,0,0-8.88,0-8.71-9.17a11.8,11.8,0,0,1,1.33-5c.08-.16.17-.33.25-.5A20.73,20.73,0,0,0,597,292.92c-1.21-1.17-2.69-2.58-4.5-4.27,0,0-2.81-1.87-3.08-6.55,0,0-1.09-9.72-5.62-11.11,0,0,5.09,5,4.32,14.91a2.63,2.63,0,0,0,1.13,2.39c4.18,2.9,16.65,13.06,9.8,27,0,0-9,13,5.62,17.66C604.68,332.93,564.63,346.29,518.37,342.62Z" fill="#2f2e41" data-secondary="true"/>
<polygon points="239.78 665.99 172.36 529.18 174.03 528.33 241.46 665.14 239.78 665.99" fill="#2f2e41" data-secondary="true"/>
<polygon points="212.71 665.77 143.28 528.97 144.95 528.1 214.37 664.9 212.71 665.77" fill="#2f2e41" data-secondary="true"/>
<polygon points="144.95 665.77 143.28 664.9 212.71 528.1 214.37 528.97 144.95 665.77" fill="#2f2e41" data-secondary="true"/>
<rect x="194.38" y="627.23" width="27.19" height="1.87" fill="#2f2e41" data-secondary="true"/>
<path d="M238.82,596.32,240.43,620s-6.42,20.66,5.82,28.49c0,0,13.64-39.53,14-52.17Z" fill="#f9b499"/>
<path d="M240.43,620s-10.44,1.31-14.91,6.85a6.76,6.76,0,0,0-.71,7.28L238.75,662a6.08,6.08,0,0,0,5.42,3.35h9.89a3.54,3.54,0,0,0,3.53-3.21c.33-3.48-1-9.14-11.34-13.65C246.25,648.49,234.41,643.67,240.43,620Z" fill="#0071f2" data-primary="true"/>
<path d="M275.74,345.37c-5.08,21.71-18.93,52.79-22.62,60.88a7.36,7.36,0,0,1-6.33,4.38c-9.58.35-25.19-10.95-25.19-10.95l14.81-19.42s4.26,5.77,7.48,1.23c0,0,24.36-46,40.41-50.3,0,0,16.59-4.55,20.07,0,0,0,2.94,3.74-8.56,1.87l6.68,6a2.46,2.46,0,0,1-2.23,4.22l-.21,0-6.25-7.49s-6.25-.37-8.61,2.49a2.48,2.48,0,0,0,.93,3.8c1.33.63,3.45.94,6.57-.41a3.12,3.12,0,0,1,3,.24c.8.57,1.3,1.5.1,3A41.64,41.64,0,0,1,275.74,345.37Z" fill="#f9b499"/>
<path d="M204.1,320.05s-4,25.74-17.39,19.47a20.56,20.56,0,0,1-9.3-5.23s-6-4.7-12.12-4.75c0,0,12.18-2.13,16.16-8.09,0,0,6.41-8.55,8.25-22.86C189.7,298.59,192.81,316.88,204.1,320.05Z" fill="#f9b499"/>
<path d="M196,431.24l-4-20.91c.5-36.31-8-58.76-8-58.76-4.94-20.64-18.71-22-18.71-22,16.52.29,27.63,25,30.71,32.76a3.63,3.63,0,0,0,3.39,2.29H204a18.75,18.75,0,0,0,12.92-5,14,14,0,0,0,4.61-10.91,4.91,4.91,0,0,1,5.61,4s-.8,10.83-16.45,20.86C210.73,373.59,204.76,407.57,196,431.24Z" fill="#0071f2" data-primary="true"/>
<path d="M117.38,425.57s-7,76.58,37.43,89.42h41.56s21.58-3.35,40.45-11.37c0,0-12.85,27.29,0,85.08H262.9S294.14,510,286.64,465a12.94,12.94,0,0,0-6.93-9.5c-7.24-3.62-23-7.49-56.94-5.64L192,441.37,181.52,417.5l-8-8.63s-27.9-4-28.7-3.61-27.42,20.31-27.42,20.31" fill="#0071f2" data-primary="true"/>
<rect x="126.46" y="514.99" width="102.74" height="15.65" rx="7.18" fill="#2f2e41" data-secondary="true"/>
<rect x="232.8" y="588.7" width="34.11" height="7.62" rx="3.5" fill="#2f2e41" data-secondary="true"/>
<path d="M324.38,431a8.63,8.63,0,0,0,2.14,5.54c8.78,10,41.5,54.85,25.2,155.94,0,0-11.77,56.25-30.5,72.84H274.67s-34.2-38.89-30.5-127.35c0,0,0-74.86,28.52-104.58a8.84,8.84,0,0,0,2.52-6.1V400h-1.74a4.55,4.55,0,0,1-4.55-4.55h0a4.55,4.55,0,0,1,4.55-4.55h52.84a4.41,4.41,0,0,1,4.41,4.41h0a4.41,4.41,0,0,1-4.41,4.42H323.9Z" fill="#2f2e41" data-secondary="true"/>
<path d="M283.77,467.1s13.34-2.67,14.29,25.87a98.43,98.43,0,0,1-2.43,24.73C291.5,536.16,281,582,272.34,608.82a29.08,29.08,0,0,0,.47,19.16c3.93,10.42,10.72,24.92,18.18,24.92h39.75a78.51,78.51,0,0,1-9.52,12.45H274.67S246,632.45,243.89,560.6c0,0-3.17-61.25,12.53-98.89Z" opacity="0.2"/>
<path d="M275.21,402.09s11.8,2.29,12.59,14.79L290,430.41a4.24,4.24,0,0,0,8.18.78l.08-.21s6-8.05,14,3.4c0,0,7.11,13.69,12.3-1.75l-.66-32.95h2.81a4.41,4.41,0,0,0,4.41-4.42h0a4.41,4.41,0,0,0-4.41-4.41H273.44a4.51,4.51,0,0,0-4.52,4.51h0a4.52,4.52,0,0,0,4.52,4.52h1.77Z" opacity="0.2"/>
<ellipse cx="293.8" cy="419.45" rx="2.01" ry="6.12" fill="#fff"/>
<ellipse cx="319.49" cy="450.54" rx="2.61" ry="5.52" opacity="0.2"/>
<path d="M201.38,329.88s8.55,1.58,20.19,18.83c0,0,1.26,11.36-12.55,15.25,0,0-10.92,3.22-13-1.66,0,0-7.67-19.51-17.34-27C178.66,335.32,195.89,349.24,201.38,329.88Z" fill="#e6e7e8"/>
<path d="M221.6,402.62l-15.13-7.81,4.26-21.22S223.14,366.86,227,354l14,22.17Z" fill="#e6e7e8"/>
<polygon points="254.34 299.89 304.71 351.52 306.51 348.58 254.34 299.89" fill="#2f2e41" data-secondary="true"/>
<path d="M313.53,361.56s-1.69-3-3.94-3.62a8,8,0,0,1-2.87-1.34,5.52,5.52,0,0,1-2.11-5.71,3.81,3.81,0,0,1,1.84-2.58C308.32,347.31,311.6,347.85,313.53,361.56Z" fill="#2f2e41" data-secondary="true"/>
<ellipse cx="313.53" cy="373.46" rx="2.47" ry="4.15" fill="#2f2e41" data-secondary="true"/>
<path d="M344.37,620l6.49,6.63,18.51-11.82L352.32,588.7S345.65,616.06,344.37,620Z" fill="#0071f2" data-primary="true"/>
<path d="M369.18,614.91l-18.71,11.52a3.26,3.26,0,0,0-1,4.52h0a3.26,3.26,0,0,0,4.46,1l18.62-11.67a3.16,3.16,0,0,0,1-4.28h0A3.15,3.15,0,0,0,369.18,614.91Z" fill="#2f2e41" data-secondary="true"/>
<path d="M363,636.2l-6.12-6.12,12.5-7.83s19.16,22.58,21.71,31.51a21.64,21.64,0,0,1-18.51-9.25S370.33,632.05,363,636.2Z" fill="#f9b499"/>
<path d="M356.18,649.87c.06-2.89.88-9.71,6.81-13.67,0,0,6.92-4.36,9.46,7.71A2.55,2.55,0,0,0,373,645c1.59,2.05,8,9.28,18.12,8.73,0,0,10,.58,14.33,8.76a1.07,1.07,0,0,1-.89,1.55l-20.77,1.13a8.84,8.84,0,0,1-4.9-1.15l-21.56-12.23A2.17,2.17,0,0,1,356.18,649.87Z" fill="#0071f2" data-primary="true"/>
<path d="M552.84,344.45s-32,6.27-40.59,38.64l-17.12,42.54s-13,28.89,16.42,32.64h27.18s-22.43-4.59-32.85-11.62a8.84,8.84,0,0,1-2.45-12.45,11.78,11.78,0,0,1,6.21-4.43,14.54,14.54,0,0,1,12.16,1.77c5.06,3.21,15.76,9.95,21.75,15.76l-6.69-29.16-1.07-4.55,1.87-1.6,35.05-1.07s1.07-8.95,10.17-9.56A23.45,23.45,0,0,1,596.79,400s-.8,44.41,28.09,50.29c0,0,28.63,7.76,30-13.37,0,0,5.48-9.7-10.32-21.05a39.34,39.34,0,0,1-11.77-13.54c-7-13.19-20.41-36.55-30.12-42.09-1-.57-2-1.12-3-1.75-4.59-3-18-11.25-31.86-15.18Z" fill="#e6e7e8"/>
<path d="M544,391.65h30.39a3.51,3.51,0,0,0,3.46-2.88c1.55-8.38,6.27-32.55,10.56-38.85a1.11,1.11,0,0,1,1.45-.37l6.24,3.33a1.11,1.11,0,0,1,.47,1.48c-2.23,4.48-11,24-6.65,45.23,0,0-2.55.57-7,1.77,0,0-7.76.59-10.17,10.63H537.66v-8.1s-20-21.32-22.31-32.2a5.3,5.3,0,0,1,.45-3.41c1.29-2.7,3.33-6.66,8.1-6.85l-.09.09a5.09,5.09,0,0,0-.22,6.52l16.89,21.89A4.43,4.43,0,0,0,544,391.65Z" fill="#0071f2" data-primary="true"/>
<polygon points="588.76 460.12 598.11 414.6 596.27 411.99 537.66 411.99 535.79 413.59 546.34 459.91 588.76 460.12" fill="#ccc"/>
<polygon points="582.88 420.95 537.33 420.48 536.66 417.74 582.88 417.74 582.88 420.95" fill="#231f20" opacity="0.2"/>
<polygon points="566.13 425.82 538.48 425.39 537.85 422.61 566.13 422.61 566.13 425.82" fill="#231f20" opacity="0.2"/>
<rect x="485.83" y="563.96" width="132.27" height="0.94" transform="translate(-13.55 1115.28) rotate(-89.89)" fill="#3f3d56"/>
<rect x="518.31" y="563.96" width="132.27" height="0.94" transform="translate(18.87 1147.77) rotate(-89.89)" fill="#3f3d56"/>
<rect x="551.84" y="573.65" width="32.6" height="0.94" fill="#3f3d56"/>
<rect x="565.49" y="499.2" width="5.35" height="131.36" fill="#3f3d56"/>
<rect x="518.67" y="624.13" width="0.94" height="37.68" transform="matrix(0.6, -0.8, 0.8, 0.6, -306.78, 670.75)" fill="#ccc"/>
<path d="M484.22,625.62h45.15a0,0,0,0,1,0,0v.5a5.52,5.52,0,0,1-5.52,5.52H489.74a5.52,5.52,0,0,1-5.52-5.52v-.5A0,0,0,0,1,484.22,625.62Z" fill="#ccc"/>
<path d="M484.22,625.62h45.15a0,0,0,0,1,0,0v.5a5.52,5.52,0,0,1-5.52,5.52H489.74a5.52,5.52,0,0,1-5.52-5.52v-.5A0,0,0,0,1,484.22,625.62Z" fill="#231f20" opacity="0.2"/>
<path d="M588.52,499.2s6.41,5.54,13.09,5.54c0,0-14.37,77.25,11.83,133.45,0,0,29.74-21.56,60.28-22.59,0,0-16.42-32.84-20.53-80.58l-6-34.27a27.87,27.87,0,0,0-7.76-15c-4.8-4.77-12.86-10.72-26.26-16.51H596.68v27S594.94,500.34,588.52,499.2Z" fill="#2f2e41" data-secondary="true"/>
<path d="M632.55,625.14s4.77,18.94,8.92,24.69c0,0,3.21-3.48,7.09-3.61l.29-27.17S638.69,622.5,632.55,625.14Z" fill="#f9b499"/>
<path d="M634.51,665.22v-3.71a17.7,17.7,0,0,1,17.7-17.7h0a17.69,17.69,0,0,1,17.7,17.7v3.71Z" fill="#0071f2" data-primary="true"/>
<path d="M518.34,458c-19.85-.84-23.08,23.58-23.08,23.58-12.44,34.51-18.06,100.72-18.06,100.72s12.21,4.25,22.16,5A61.06,61.06,0,0,1,521,592.67c4.1,1.94,7.62,4.2,8.37,6.46,0,0,10.14,3.24,12-68.22L548,458.27Z" fill="#2f2e41" data-secondary="true"/>
<path d="M477.2,582.27s27.29,26.09,52.17,16.86c0,0-2.08-7.89-26.89-11.59C502.48,587.54,486,585.41,477.2,582.27Z" fill="#2f2e41" data-secondary="true"/>
<path d="M477.2,582.27s27.29,26.09,52.17,16.86c0,0-2.08-7.89-26.89-11.59C502.48,587.54,486,585.41,477.2,582.27Z" opacity="0.2"/>
<path d="M500.43,587.29l3.66,18.46,8.43,3.21,3-18.62A68.31,68.31,0,0,0,500.43,587.29Z" fill="#f9b499"/>
<path d="M162.06,420.61s13.36,37.26,27,37.66c0,0,22.47,4,61.8-27.29a57.86,57.86,0,0,0,8.31,2.64,24.72,24.72,0,0,0,24.5-8.15l2.57-3a1.93,1.93,0,0,0-1.31-3.18,8,8,0,0,0-5.26,1.78,17.59,17.59,0,0,1-11.45,3.17c-2.58-.21-4.85-1-5.32-3.26,0,0-1.9-5.14,6.26-4.55a.62.62,0,0,0,.3-1.18c-4.44-2-12.6-3.86-17,5.73l-56.23,11.64L192,410.33Z" fill="#f9b499"/>
<path d="M157.13,422.3l34.84-12s2-56.36-16.88-75.68c-4.54-4.65-11.26-6.49-17.18-3.81-5.48,2.49-12.55,7.65-18.63,18.4,0,0-17.88,31.07-21.62,76.38,0,0,25.31,4.85,32.39-14.21Z" fill="#e6e7e8"/>
<path d="M489.1,625.62v-3.71a17.69,17.69,0,0,1,17.7-17.7h0a17.7,17.7,0,0,1,17.7,17.7v3.71Z" fill="#0071f2" data-primary="true"/>
<path d="M544.36,448.41a4.24,4.24,0,0,0,5.5-1.09c1.61-2,5.31-4.47,13-1.62,0,0,2.45,1.68-4.8,1.84a1.63,1.63,0,0,0-.17,3.24h.1s9.39,1.9,14.14-3.75a1.56,1.56,0,0,1,2.54.14h0a1.54,1.54,0,0,1,.17,1.24c-.78,2.66-4,12.34-9.55,11.66a9.81,9.81,0,0,0-1.09-.09l-14.22.1a31.48,31.48,0,0,1-6.64-.65c-6.81-1.41-22.19-4.92-31.91-9.74,0,0-14.39-4.51-8-15.5,0,0,5.48-8.07,16.42-3.71,0,0,15.37,8.59,23.7,16.81C543.37,447.56,543.72,448,544.36,448.41Z" fill="#f9b499"/>
<path d="M585.43,415.44a2.72,2.72,0,0,0,2.32-1.63c1-2.18,3-5.81,5.83-4.7,3.94,1.56,18.26,33.91,41.33,35.72,0,0,14.85,4.21,12.65-5.82,0,0,1-10-11.24-17.26,0,0-24.67-15.65-39.17-21.65a2.59,2.59,0,0,0-.77-.21,30.52,30.52,0,0,0-6.47-.3s-5.94,1.26-8.15,1.83a10.92,10.92,0,0,0-9,9.5v2.43a2.71,2.71,0,0,0,2.88,2.7Z" fill="#f9b499"/>
<path d="M539.8,469.24h56.87a0,0,0,0,1,0,0v25.54a4.43,4.43,0,0,1-4.43,4.43h-48a4.43,4.43,0,0,1-4.43-4.43V469.24A0,0,0,0,1,539.8,469.24Z" fill="#ccc"/>
<path d="M552.09,496.53s-.63-20.07,16.15-27.29H539.8v25.42a4.55,4.55,0,0,0,4.55,4.54h7.74Z" fill="#fff" opacity="0.2"/>
<rect x="513.59" y="460.12" width="107.02" height="9.12" rx="4.18" fill="#ccc"/>
<rect x="513.59" y="460.12" width="107.02" height="9.12" rx="4.18" fill="#231f20" opacity="0.2"/>
<path d="M540.61,630.57h54.56a6.43,6.43,0,0,1,6.43,6.43v20.06a0,0,0,0,1,0,0H534.19a0,0,0,0,1,0,0V637A6.43,6.43,0,0,1,540.61,630.57Z" fill="#ccc"/>
<path d="M546.23,657.05V634s-1.07-3.47,3.74-3.47h-9.9a5.88,5.88,0,0,0-5.88,5.88v20.6Z" fill="#fff" opacity="0.2"/>
<rect x="522.75" y="657.05" width="90.7" height="8.29" fill="#ccc"/>
<path d="M552,325.44H568.1a0,0,0,0,1,0,0V341a6.75,6.75,0,0,1-6.75,6.75h-2.55A6.75,6.75,0,0,1,552,341V325.44A0,0,0,0,1,552,325.44Z" fill="#f9b499"/>
<path d="M731.78,378.6s-9-28.83,7.16-45.72a1,1,0,0,1,1.41,0,1,1,0,0,1,.26.47C741.51,338.14,742.6,352.66,731.78,378.6Z" fill="#2f2e41" data-secondary="true"/>
<path d="M742.36,446.61s5.51-29.7,27.7-37.07a1,1,0,0,1,1.29,1.26C769.9,415.41,764.07,428.73,742.36,446.61Z" fill="#2f2e41" data-secondary="true"/>
<path d="M736.37,521.14s-3.34-30.06,15.74-43.52a1,1,0,0,1,1.67.82C753.7,483.27,751.93,497.71,736.37,521.14Z" fill="#2f2e41" data-secondary="true"/>
<path d="M753.08,596.08s-2.27-30.06,17.3-42.92a1,1,0,0,1,1.39.29,1,1,0,0,1,.16.58C771.7,558.87,769.48,573.23,753.08,596.08Z" fill="#2f2e41" data-secondary="true"/>
<path d="M718.82,353.27s-26.72-14-27.3-37.35a1,1,0,0,1,1.55-.87C697,317.81,708.08,327.29,718.82,353.27Z" fill="#2f2e41" data-secondary="true"/>
<path d="M747.57,415.21S720,402.87,718.05,379.57a1,1,0,0,1,.89-1.1,1.07,1.07,0,0,1,.61.13C723.64,381.11,735.33,389.91,747.57,415.21Z" fill="#2f2e41" data-secondary="true"/>
<path d="M731.71,484.27s-18.94-23.55-10-45.17a1,1,0,0,1,1.79-.17C726,443.06,732.28,456.16,731.71,484.27Z" fill="#2f2e41" data-secondary="true"/>
<path d="M750.46,565.55s-27.37-12.79-28.92-36.12a1,1,0,0,1,.92-1.07,1,1,0,0,1,.6.14C727.15,531.07,738.67,540.05,750.46,565.55Z" fill="#2f2e41" data-secondary="true"/>
<path d="M752.78,582.72s9.28-28.76-6.68-45.79a1,1,0,0,0-1.41,0,.88.88,0,0,0-.26.46C743.43,542.16,742.21,556.65,752.78,582.72Z" fill="#3f3d56"/>
<path d="M747.72,546.55a24.6,24.6,0,0,1,1.34,5.19c.68,3.24,1.5,7.72,2.27,12.71s1.3,9.52,1.57,12.81a21.36,21.36,0,0,1,.11,5.36,27.56,27.56,0,0,1-.9-5.26c-.55-3.68-1.2-8-1.9-12.74s-1.39-9.07-1.94-12.74A25.79,25.79,0,0,1,747.72,546.55Z" fill="#263238"/>
<path d="M752.78,582.72s9.28-28.76-6.68-45.79a1,1,0,0,0-1.41,0,.88.88,0,0,0-.26.46C743.43,542.16,742.21,556.65,752.78,582.72Z" fill="#2f2e41" data-secondary="true"/>
<path d="M803.44,481.4s24.75-17.34,22.24-40.58a1,1,0,0,0-1-.93,1,1,0,0,0-.63.28C820.49,443.41,810.72,454.23,803.44,481.4Z" fill="#3f3d56"/>
<path d="M803.58,481.4s24.75-17.34,22.24-40.58a1,1,0,0,0-1-.93,1,1,0,0,0-.64.28C820.63,443.41,810.86,454.23,803.58,481.4Z" fill="#2f2e41" data-secondary="true"/>
<path d="M762.75,554.18s29.86-4.66,37.85-26.62a1,1,0,0,0-.58-1.29,1,1,0,0,0-.62,0C794.74,527.6,781.25,533,762.75,554.18Z" fill="#3f3d56"/>
<path d="M762.75,554.18s29.86-4.66,37.85-26.62a1,1,0,0,0-.58-1.29,1,1,0,0,0-.62,0C794.74,527.6,781.25,533,762.75,554.18Z" fill="#2f2e41" data-secondary="true"/>
<path d="M746.3,618.45a4.69,4.69,0,0,1,.34-.8c.25-.57.61-1.32,1.06-2.27a56.76,56.76,0,0,0,3.13-9.12c2.08-8.1,2.8-20.49-.27-35.18a188.78,188.78,0,0,0-6.51-23.58c-2.77-8.35-6-17.28-8.6-26.9a104.13,104.13,0,0,1-4.24-30.94c.4-10.94,3.64-21.87,7.19-32.74s7.23-21.53,8.35-32.25a49,49,0,0,0-5.91-29.77c-4.71-8.68-10.63-16.11-15-23.81a83.67,83.67,0,0,1-9.08-22.91,85.49,85.49,0,0,1-.57-35.47,66,66,0,0,1,3.71-12.52,7.62,7.62,0,0,1-.22.82l-.75,2.4a91.81,91.81,0,0,0-2.3,9.39,86.27,86.27,0,0,0,.92,35.2,82.24,82.24,0,0,0,9,22.51c4.42,7.61,10.38,15,15.19,23.79a50.06,50.06,0,0,1,6.1,30.39c-1.1,10.89-4.81,21.61-8.35,32.48s-6.78,21.7-7.18,32.44a103.94,103.94,0,0,0,4.14,30.62c2.59,9.57,5.74,18.47,8.48,26.89a182.31,182.31,0,0,1,6.41,23.76c3,14.81,2.14,27.32,0,35.45a51.44,51.44,0,0,1-3.33,9.08l-1.17,2.24A6.23,6.23,0,0,1,746.3,618.45Z" fill="#2f2e41" data-secondary="true"/>
<path d="M737.17,342.5a24.91,24.91,0,0,1-.6,5.31c-.6,3.68-1.29,8-2.06,12.73s-1.43,9-2,12.72a28.46,28.46,0,0,1-1,5.26,21.85,21.85,0,0,1,.15-5.36c.3-3.34.89-7.83,1.67-12.81s1.67-9.45,2.39-12.67A24,24,0,0,1,737.17,342.5Z" fill="#2f2e41" data-secondary="true"/>
<path d="M764,417.26a25.5,25.5,0,0,1-3,4.41L753.23,432l-7.73,10.36a28.78,28.78,0,0,1-3.34,4.2,23,23,0,0,1,2.66-4.67c1.8-2.77,4.44-6.5,7.48-10.52s5.91-7.57,8-10A23.91,23.91,0,0,1,764,417.26Z" fill="#2f2e41" data-secondary="true"/>
<path d="M748.56,486.72a27.54,27.54,0,0,1-1.67,5l-4.46,12.11c-1.67,4.51-3.12,8.6-4.41,12.09a29.32,29.32,0,0,1-1.94,5,22.76,22.76,0,0,1,1.26-5.16c.91-3.18,2.35-7.52,4.1-12.24s3.46-9,4.76-12A23.74,23.74,0,0,1,748.56,486.72Z" fill="#2f2e41" data-secondary="true"/>
<path d="M766.51,562.13a27.27,27.27,0,0,1-1.81,5l-4.87,11.92L755,591a30.65,30.65,0,0,1-2.12,4.93,21.68,21.68,0,0,1,1.37-5.2c1-3.14,2.62-7.41,4.54-12.09s3.78-8.81,5.18-11.8A23,23,0,0,1,766.51,562.13Z" fill="#2f2e41" data-secondary="true"/>
<path d="M697.08,324a26.87,26.87,0,0,1,3.34,4.18L708,338.58c2.82,3.89,5.39,7.4,7.56,10.4a30.44,30.44,0,0,1,3.09,4.39,21.16,21.16,0,0,1-3.67-3.89c-2.12-2.54-5-6.16-7.86-10.25s-5.51-7.86-7.3-10.64A23.7,23.7,0,0,1,697.08,324Z" fill="#2f2e41" data-secondary="true"/>
<path d="M724.08,387.2a27.15,27.15,0,0,1,3.59,4c2.35,2.86,5.12,6.23,8.16,10l8.2,9.94a25.65,25.65,0,0,1,3.34,4.21,23.5,23.5,0,0,1-3.91-3.68c-2.27-2.4-5.27-5.84-8.46-9.75s-6-7.51-7.93-10.19A23.6,23.6,0,0,1,724.08,387.2Z" fill="#2f2e41" data-secondary="true"/>
<path d="M723.53,448.68a28.07,28.07,0,0,1,1.38,5.18l2.72,12.59c1,4.69,2,8.95,2.78,12.57a27.55,27.55,0,0,1,1,5.25,23.06,23.06,0,0,1-1.8-5c-.92-3.17-2-7.62-3.11-12.54s-1.88-9.39-2.4-12.73A23.69,23.69,0,0,1,723.53,448.68Z" fill="#2f2e41" data-secondary="true"/>
<path d="M727.45,537.22a25.36,25.36,0,0,1,3.51,4c2.3,2.92,5,6.33,8,10.1l8,10a28,28,0,0,1,3.24,4.26,23,23,0,0,1-3.84-3.74c-2.24-2.44-5.2-5.93-8.35-9.89s-5.85-7.61-7.75-10.32A23.82,23.82,0,0,1,727.45,537.22Z" fill="#2f2e41" data-secondary="true"/>
<path d="M805,446.78v2.59c0,1.82-.2,4.27-.33,7.33-.35,6.44-.84,15.41-1.44,26.16h0c-2,10.94-7.51,23.06-15,34.82-5.49,8.67-11.23,16.55-16.19,23.88a165.26,165.26,0,0,0-12.14,20,87.46,87.46,0,0,0-5.7,14.73c-.46,1.81-.83,3.21-1,4.18a6.12,6.12,0,0,1-.4,1.45,9.31,9.31,0,0,1,.18-1.5c.14-1,.44-2.41.86-4.24a77,77,0,0,1,5.39-15,156.91,156.91,0,0,1,12-20.31c5-7.38,10.65-15.28,16.1-23.89,7.44-11.69,13-23.65,15-34.4h0c.75-10.74,1.37-19.7,1.84-26.13.23-3.06.43-5.49.58-7.31a14.57,14.57,0,0,1,.2-1.93A3.45,3.45,0,0,1,805,446.78Z" fill="#2f2e41" data-secondary="true"/>
<path d="M786.56,479a23.66,23.66,0,0,1,.92,5.28c.42,3.34.87,7.81,1.23,12.84s.54,9.6.54,12.91a22.25,22.25,0,0,1-.34,5.34,29.74,29.74,0,0,1-.46-5.33c-.25-3.69-.55-8.05-.87-12.84s-.64-9.15-.89-12.86A26.48,26.48,0,0,1,786.56,479Z" fill="#2f2e41" data-secondary="true"/>
<path d="M821.21,449.5a24,24,0,0,1-2.06,5c-1.41,3-3.45,7.06-5.86,11.51s-4.69,8.35-6.47,11.17a22.74,22.74,0,0,1-3.14,4.34,29.32,29.32,0,0,1,2.45-4.76l6.18-11.3,6.13-11.33A26.59,26.59,0,0,1,821.21,449.5Z" fill="#2f2e41" data-secondary="true"/>
<path d="M792.76,533.41a23,23,0,0,1-4,3.54c-2.59,2-6.21,4.81-10.32,7.75s-7.91,5.46-10.73,7.18a21.34,21.34,0,0,1-4.75,2.5,29.69,29.69,0,0,1,4.31-3.17l10.52-7.43,10.49-7.47A26.65,26.65,0,0,1,792.76,533.41Z" fill="#2f2e41" data-secondary="true"/>
<polygon points="727.43 609.15 736 665.3 770.2 665.25 781.72 609.15 727.43 609.15" fill="#2f2e41" data-secondary="true"/>
<path d="M776.69,630.82a.9.9,0,0,1-.28.2,8.08,8.08,0,0,1-.9.52,12.54,12.54,0,0,1-3.83,1.14,14.09,14.09,0,0,1-6.28-.59,13.12,13.12,0,0,1-6.69-4.91,9.6,9.6,0,0,1-1.67-4.7,5.11,5.11,0,0,1,2.34-4.85,5.54,5.54,0,0,1,5.72.47,8.32,8.32,0,0,1,3.34,5.16,23.3,23.3,0,0,1-1,12.84,14.39,14.39,0,0,1-4,5.64,11,11,0,0,1-6.58,2.76,12.07,12.07,0,0,1-6.85-2,20.21,20.21,0,0,1-5-4.62,11.13,11.13,0,0,1-2.58-6.16,7.08,7.08,0,0,1,2.42-6,5.54,5.54,0,0,1,6.06-.37,6.51,6.51,0,0,1,3.49,4.58,8.73,8.73,0,0,1-4.33,8.88,12,12,0,0,1-8.25,1.2,18.81,18.81,0,0,1-5.87-2.3,33,33,0,0,1-3.34-2.24,6.48,6.48,0,0,1-1.06-.9,11.66,11.66,0,0,1,1.17.75c.75.5,1.86,1.25,3.34,2.07a19.42,19.42,0,0,0,5.8,2.11,11.73,11.73,0,0,0,7.83-1.26,8.12,8.12,0,0,0,3.91-8.16,5.68,5.68,0,0,0-3.13-4,4.67,4.67,0,0,0-5.14.3,6.38,6.38,0,0,0-2.07,5.23,10.55,10.55,0,0,0,2.42,5.66,19.56,19.56,0,0,0,4.88,4.37,11.14,11.14,0,0,0,6.31,1.85,10.08,10.08,0,0,0,6-2.52,13.42,13.42,0,0,0,3.72-5.29,19.94,19.94,0,0,0,1.34-6.2,21,21,0,0,0-.37-6.07,7.53,7.53,0,0,0-2.89-4.68,4.72,4.72,0,0,0-4.89-.48,4.4,4.4,0,0,0-2,4.12,9,9,0,0,0,1.42,4.36,12.88,12.88,0,0,0,6.38,4.78,13.82,13.82,0,0,0,6.08.71A15.83,15.83,0,0,0,776.69,630.82Z" opacity="0.2"/>
<path d="M203.2,324.19l.9-4.14a18.25,18.25,0,0,1-11.44-11.94S190.7,315.46,203.2,324.19Z" fill="#f4a48e"/>
<ellipse cx="206.61" cy="293.6" rx="17.1" ry="26.73" fill="#f9b499"/>
<path d="M117.38,449.1s-29.65-3.1-31.3-26.81c0,0-1.65-12,12.51-21.08a31.46,31.46,0,0,0,4.14-2.13,33.3,33.3,0,0,0,12.47-43.73,1.62,1.62,0,0,0-.1-.18,12.38,12.38,0,0,1-1.2-3.22c-1.39-6.52-3.65-26.92,20.6-32.43,0,0-36.23,0-22.73,38.87,0,0,15.48,28.65-18.12,41.5,0,0-29,10-5.27,40.09a27.69,27.69,0,0,1-11.16-24,16.6,16.6,0,0,1,1.66-6.33c1.81-3.66,5.85-9.2,14.4-12.41,0,0,21.82-7.65,19.7-26.17a21.55,21.55,0,0,0-.5-2.64A142.21,142.21,0,0,0,108.26,354s-13.64-36.16,33.45-37.23c0,0,11.77.27,22.2,5.35,0,0,2.08-9.46-2.77-17.66a31.52,31.52,0,0,1-2.76-5.77c-2.87-8.37-7.43-28.09,8.74-37.83,0,0,18.49-12.31,39.35,3.47a12.88,12.88,0,0,1,15.13,2.41s10.13,8.7,1,19.13c0,0,7-11.1-4.15-19.53,0,0,5.22,9,1.87,14.18,0,0-3.41-7-8-8.63,0,0-5.22,3.21-6.22,7,0,0,5.41,19.33-11,21,0,0,14.25-4.95,9.23-19.8,0,0-1.4,16.65-14.65,17.46,0,0,2.18,31.37-26.7,32,0,0-9-.27-19.75,14.27a68.88,68.88,0,0,0-8,14.24C129.09,372.68,114.36,414,117.38,449.1Z" fill="#2f2e41" data-secondary="true"/>
<path d="M552,327.06v4.13s12.67,3.5,16.06-2.64Z" fill="#f4a48e"/>
<ellipse cx="561.37" cy="305.27" rx="19.56" ry="24.78" fill="#f9b499"/>
<ellipse cx="580.94" cy="298.65" rx="3.61" ry="5.42" fill="#f9b499"/>
<path d="M540.61,305.27s16.54-4.21,25.68-19.56c0,0,.6,4.41-3.81,8.83,0,0,8.57-3.35,9.6-10,0,0,5.23,4.09,6.8,9.66,0,0,1.65-2.06,4.06-.06l-3.21-12.65-22.47-6.82-23.48,11.24Z" fill="#2f2e41" data-secondary="true"/>
</svg>