 <!DOCTYPE svg PUBLIC "-//W3C//DTD SVG 1.1//EN" "http://www.w3.org/Graphics/SVG/1.1/DTD/svg11.dtd">
<svg id="ad7ff7f6-bfaf-4db3-9bb3-69300cd28d73" data-name="Layer 1" xmlns="http://www.w3.org/2000/svg" xmlns:xlink="http://www.w3.org/1999/xlink" width="865.76" height="682.89" viewBox="0 0 865.76 682.89">
<defs>
<clipPath id="bc3b5885-f7f7-45f1-8e81-84b6ac7d031b">
<circle id="e8d15076-ea1c-425d-b27d-15fbab41fec3" data-name="SVGID" cx="637.21" cy="223.87" r="64.47" transform="translate(314.16 816.99) rotate(-80.78)" fill="none"/>
</clipPath>
<clipPath id="a4688ca4-454f-4532-8560-a47e6be8a0ca">
<circle id="a5ecf8f6-c9be-46fd-8178-ed42615e58b1" data-name="SVGID" cx="637.25" cy="224.05" r="64.47" transform="translate(28.21 516.23) rotate(-45)" fill="#e1e1e1"/>
</clipPath>
<clipPath id="ea0d0951-aab2-46c7-83bd-7600f3406518">
<circle id="af5ff6d8-411b-4659-afb7-7f8282cbe31f" data-name="SVGID" cx="637.31" cy="224.25" r="64.5" fill="none"/>
</clipPath>
<style xmlns="http://www.w3.org/1999/xhtml">*, ::after, ::before { box-sizing: border-box; }
img, svg { vertical-align: middle; }
</style>
<style xmlns="http://www.w3.org/1999/xhtml">*, body, html { -webkit-font-smoothing: antialiased; }
img, svg { max-width: 100%; }
</style>
</defs>
<path d="M372.61,65.44c-.72-4.14-.66-9.8-5.72-13s-10.49-3.2-15.61.24a17,17,0,0,0-6.85,9.57c-1.67,5.49-.58,10.75,1,16,2.16,7.29,6,13.81,9.32,20.57.83,1.7,1.36,3.56,2.08,5.48a3.15,3.15,0,0,0,.93-.34c3.15-2.16,6.82-3.07,10.36-4.25a83.63,83.63,0,0,0,16.69-7.18c4-2.4,7.76-5.31,10-9.56,4-7.65,4-15.9-3.78-21.07C384.32,57.63,377.46,61.11,372.61,65.44Z" fill="#bcbec0"/>
<path d="M344,22.26c-1.32-1.69-2.66-4.27-5.72-4.51a6.81,6.81,0,0,0-7,3.87,8.76,8.76,0,0,0-.8,6c.57,2.89,2.33,5,4.3,7,2.73,2.78,6,4.81,9.17,7.07.79.57,1.48,1.28,2.27,2a1.63,1.63,0,0,0,.33-.38,20.51,20.51,0,0,1,3.67-4.42,43.33,43.33,0,0,0,5.83-7.27,12.81,12.81,0,0,0,2.21-6.73c0-4.43-2-8.16-6.78-8.63C347.46,15.91,345.19,19.14,344,22.26Z" fill="#bcbec0"/>
<path d="M353.51,56.69a2.56,2.56,0,1,0,3.66-1.28A2.76,2.76,0,0,0,353.51,56.69Z" fill="#bcbec0"/>
<path d="M333.59,23A1.42,1.42,0,1,0,336,24.41,1.43,1.43,0,1,0,333.59,23Z" fill="#bcbec0"/>
<path d="M264.25,338.79l26.66,151.09L255.36,614.31,226,603.64s10.66-89.76,27.55-115.54l-29.33-78.21,5.33-69.33Z" fill="#2f2e41" data-secondary="true"/>
<polygon points="171.29 341.54 182.58 497.88 173.93 622.31 206.85 622.31 249.14 343.23 171.29 341.54" fill="#2f2e41" data-secondary="true"/>
<path d="M353.24,235.89s14.82-7.15,8.89-15.31-12.59-10-17.52-7.59-18.41,17.08-18.41,17.08l-14.47,7.52,13.93,11.11s12-4.29,14.17-5.23Z" fill="#f9b499"/>
<path d="M366.6,193.69l-39.8,26.95c-.81.58-.67,3.46,0,4.15l16.55,16a1.6,1.6,0,0,0,2.09.11l42.37-33.21c.88-.69,1-3.74.06-4.31l-19.56-9.79A1.57,1.57,0,0,0,366.6,193.69Z" fill="#2f2e41" data-secondary="true"/>
<path d="M366.6,191.66,327,220.33a1.6,1.6,0,0,0-.18,2.44l16.55,16a1.6,1.6,0,0,0,2.09.11l42.37-33.21a1.59,1.59,0,0,0-.17-2.62l-19.33-11.48A1.59,1.59,0,0,0,366.6,191.66Z" fill="#3f3d56"/>
<polygon points="364.77 195.7 332.23 219.59 347.21 232.85 381.81 206.4 364.77 195.7" fill="#ececec"/>
<path d="M378.14,201.23l-5.16-3a.74.74,0,0,1-.27-1h0a.75.75,0,0,1,1-.28l5.16,3a.75.75,0,0,1,.27,1h0A.74.74,0,0,1,378.14,201.23Z" fill="#ececec"/>
<path d="M338.33,230.19l-4.58-3.82a.74.74,0,0,1-.09-1h0a.75.75,0,0,1,1-.1l4.58,3.82a.74.74,0,0,1,.09,1h0A.75.75,0,0,1,338.33,230.19Z" fill="#ececec"/>
<g opacity="0.5">
<polygon points="332.63 219.19 365.47 218.91 368.2 216.92 335.34 217.25 332.63 219.19" fill="#eaeaea"/>
</g>
<path d="M256.83,257.55l58.47-28.3,17,21S268.15,291.5,267.52,289,256.83,257.55,256.83,257.55Z" fill="#0071f2" data-primary="true"/>
<path d="M253.54,175.28s13.09,2,16.53,23.94c4.79,30.46,2.87,145.13,2.87,145.13l-98.85-1.72s9.23-161.95,9.2-162.27c-.1-1.19,4.3-9.17,35-9.17Z" fill="#0071f2" data-primary="true"/>
<g opacity="0.2">
<path d="M273.1,257.9c-.23-16.64-.71-32.92-1.61-45.24H181.36c-.81,13.29-1.78,29.3-2.75,45.24Z" fill="#fff"/>
</g>
<path d="M248.53,158.3s0,16.44,3.28,19.72L246,183c-9.37,10.57-8.22,13.45-21.48.21l-8.89-7.41,12.05-28.48Z" fill="#f6b297"/>
<path d="M184.1,367.36s7.15,14.81,15.31,8.88,10-12.58,7.59-17.51-17.08-18.41-17.08-18.41l-7.52-14.47-11.11,13.93s4.29,12,5.23,14.17Z" fill="#f9b499"/>
<polygon points="233.7 69.48 287.72 101.17 291.83 86.98 272.08 73.43 243.86 64.97 233.7 69.48" fill="#2f2e41" data-secondary="true"/>
<path d="M164.62,200.75,135.26,250.1a20.85,20.85,0,0,0-1.07,19.28l33.58,74L194.38,339l-25.64-77.59s16.86-22,22.33-29.85c18.91-27,23.4-69.74-5.07-54.57A47.47,47.47,0,0,0,164.62,200.75Z" fill="#0071f2" data-primary="true"/>
<rect x="457.54" y="89.04" width="275.9" height="497.94" rx="25.45" fill="#2f2e41" data-secondary="true"/>
<rect x="470.84" y="139.86" width="249.3" height="396.3" fill="#fff"/>
<path d="M569.7,119.5h53.93a4.27,4.27,0,0,0,4.26-4.26h0a4.27,4.27,0,0,0-4.26-4.25H569.7a4.26,4.26,0,0,0-4.25,4.25h0A4.26,4.26,0,0,0,569.7,119.5Z" fill="#fff"/>
<rect x="565.45" y="549.15" width="62.44" height="23.38" rx="11.69" fill="#fff"/>
<circle id="e33120c0-b647-49f6-b4dc-5ddcd4d0caae" data-name="SVGID" cx="637.25" cy="224.05" r="64.47" transform="translate(28.21 516.23) rotate(-45)" fill="#e1e1e1"/>
<g clip-path="url(#a4688ca4-454f-4532-8560-a47e6be8a0ca)">
<path d="M636,188.75s-6.59,8.1-12.22,9.29-6.43,17-6.43,17l1,15.79s-27.75-16.38-13-45.5,35.25-15.77,35.25-15.77,19.87-13.65,32.62,7.71-6.52,29.66-6.52,29.66S643.1,202.39,636,188.75Z" fill="#e1e1e1"/>
<path d="M645.75,252.5s8,1.25,10.17,14.72c2.94,18.73,1.77,89.24,1.77,89.24L596.9,355.4s5.68-99.58,5.66-99.78c-.06-.73,2.64-5.63,21.51-5.63Z" fill="#e1e1e1"/>
<path d="M657.78,303.3c-.14-10.23-.44-20.24-1-27.82H601.37c-.5,8.18-1.09,18-1.69,27.82Z" fill="#e1e1e1"/>
<path d="M659.55,222.44c0,3.46.22,6.25,2.58,6.25s6-2.79,6-6.25-1.92-6.27-4.28-6.27S659.55,219,659.55,222.44Z" fill="#e1e1e1"/>
<path d="M642.67,242.06s0,10.11,2,12.13l-3.55,3.08c-5.76,6.5-5.06,8.27-13.21.13l-5.47-4.56,7.41-17.51Z" fill="#e1e1e1"/>
<path d="M642.61,188s-5.21-1-16.73,4.35c-7.34,3.42-11.15,22.29-11.15,22.29,0-8.8-10.87-7.08-9.89.75s11,8.81,11,8.81-1.79,23.83,25,24.3c22.22.38,23.46-28.3,25.51-36.64a16.14,16.14,0,0,0-.28-8.93,20.4,20.4,0,0,0-9-10.76,28.56,28.56,0,0,0-13.57-4.12Z" fill="#e1e1e1"/>
<path d="M645.24,226.75a8.71,8.71,0,0,1-1.93-.21.52.52,0,0,1-.39-.62.53.53,0,0,1,.63-.39s2.72.63,4.09-.46a2.27,2.27,0,0,0,.8-1.93,3,3,0,0,0-.88-2.25,6,6,0,0,0-3.84-1.18.52.52,0,0,1-.55-.49.53.53,0,0,1,.49-.55c.12,0,2.94-.13,4.61,1.47a4,4,0,0,1,1.21,3,3.3,3.3,0,0,1-1.19,2.75A4.92,4.92,0,0,1,645.24,226.75Z" fill="#e1e1e1"/>
<path d="M641.8,236.86c-4.13,0-9.26-1.23-12.1-6.59a1,1,0,1,1,1.84-1c4.44,8.36,15.86,4.71,16,4.67a1,1,0,1,1,.65,2A22.9,22.9,0,0,1,641.8,236.86Z" fill="#e1e1e1"/>
<path d="M611.7,221a2,2,0,0,1-1.52-.73,2.56,2.56,0,0,1-.16-3.35.52.52,0,0,1,.73,0,.51.51,0,0,1,0,.73,1.55,1.55,0,0,0,.15,2,.92.92,0,0,0,1.32.18,2.26,2.26,0,0,0,1.21-1.87c-.06-1.28-1.62-2.81-4.64-4.55l-.4-.24a.52.52,0,0,1-.11-.73.51.51,0,0,1,.72-.11l.31.18c2.16,1.24,5,3.16,5.16,5.4a3.24,3.24,0,0,1-1.64,2.77A2,2,0,0,1,611.7,221Z" fill="#e1e1e1"/>
<path d="M660.28,188.26a.68.68,0,0,1-.51-.23s-2.06-2.18-3.43-1.5a.68.68,0,0,1-.93-.31.7.7,0,0,1,.31-.93,2.94,2.94,0,0,1,2.25-.1,20.82,20.82,0,0,0-2.38-2.28.7.7,0,0,1,.44-1.24,8.48,8.48,0,0,1,1.72.18l-2.46-2.54a.68.68,0,0,1-.12-.78.7.7,0,0,1,.68-.4l4,.33a27.47,27.47,0,0,0-5.52-3.5.69.69,0,1,1,.6-1.25c.23.11,5.64,2.72,7.15,5.23a.7.7,0,0,1-.65,1.05l-3.84-.32,3.84,4a7.58,7.58,0,0,1,1.33,1.4.69.69,0,0,1-1.07.87l-1.23-1.27a7,7,0,0,0-2.24-1.24,11,11,0,0,1,2.75,4,.69.69,0,0,1-.33.8A.67.67,0,0,1,660.28,188.26Z" fill="#e1e1e1"/>
<path d="M623.62,190.14a.64.64,0,0,1-.39-.12.68.68,0,0,1-.18-1,36,36,0,0,1,2.49-3.25,39.31,39.31,0,0,0-5.35,2.71.71.71,0,0,1-.83-.07.69.69,0,0,1-.17-.81c.35-.74.69-1.38,1-1.93a27.46,27.46,0,0,0-3.52,2.73.7.7,0,0,1-1.16-.64,13.6,13.6,0,0,1,2.38-5.22,30.4,30.4,0,0,0-3.17,2.1.71.71,0,0,1-.81,0,.69.69,0,0,1-.28-.77c2.35-8.25,7.65-9.9,7.88-10a.69.69,0,0,1,.39,1.33c-.18.06-4,1.28-6.26,7a18.06,18.06,0,0,1,4.54-2.28.69.69,0,0,1,.8.32.71.71,0,0,1-.13.85,16.45,16.45,0,0,0-3.26,4.63,19.29,19.29,0,0,1,4.63-2.75.69.69,0,0,1,.73,1.14,12.78,12.78,0,0,0-1.39,1.89,26.3,26.3,0,0,1,6.27-2.49.7.7,0,0,1,.77.39.67.67,0,0,1-.2.83,25.61,25.61,0,0,0-4.22,5A.7.7,0,0,1,623.62,190.14Z" fill="#e1e1e1"/>
<ellipse cx="631.74" cy="216.43" rx="3.41" ry="1.85" transform="translate(252 765.73) rotate(-74.25)" fill="#e1e1e1"/>
<path d="M658.14,220c-.45,1.83-1.62,3.12-2.61,2.88s-1.43-1.93-1-3.76,1.62-3.12,2.61-2.87S658.59,218.17,658.14,220Z" fill="#e1e1e1"/>
<polygon points="633.55 187.45 666.77 206.94 669.3 198.21 657.15 189.88 639.8 184.67 633.55 187.45" fill="#e1e1e1"/>
<path d="M637.11,206.53a1,1,0,0,1-.3-.05l-10.37-3.19a1,1,0,1,1,.62-2l10.36,3.19a1,1,0,0,1-.31,2Z" fill="#e1e1e1"/>
<g opacity="0.3">
<path d="M616.05,256.43l-14.18,10.74c-.79,13.05-2.11,34.81-3.2,52.7C624.09,288.47,616.05,256.43,616.05,256.43Z" fill="#e1e1e1"/>
</g>
<path d="M662,209.71h0l-7.61-.13a1,1,0,0,1-1-1.06,1,1,0,0,1,1.06-1l7.61.13a1,1,0,0,1,1,1.06A1,1,0,0,1,662,209.71Z" fill="#e1e1e1"/>
<polygon points="618.47 199.59 618.81 220.61 616.06 220.61 614.73 214.67 615.02 201.83 618.47 199.59" fill="#e1e1e1"/>
<path d="M591.08,268.16,573,298.5a12.83,12.83,0,0,0-.66,11.86L593,355.85l16.36-2.7-15.77-47.7S604,291.9,607.35,287.1c11.62-16.61,14.38-42.89-3.12-33.56A29.17,29.17,0,0,0,591.08,268.16Z" fill="#e1e1e1"/>
</g>
<path d="M616.39,223.3c0,3.33-.21,6-2.49,6s-5.74-2.68-5.74-6,1.84-6,4.12-6S616.39,220,616.39,223.3Z" fill="#f6b297"/>
<path d="M519.86,223.56c.72-4.13.65-9.79,5.72-13s10.49-3.2,15.6.25a17,17,0,0,1,6.85,9.56c1.68,5.5.58,10.75-1,16-2.15,7.29-6,13.81-9.31,20.56-.84,1.71-1.36,3.56-2.08,5.49a3.24,3.24,0,0,1-.93-.34c-3.16-2.16-6.82-3.08-10.37-4.26a83.51,83.51,0,0,1-16.69-7.17c-4-2.41-7.76-5.31-10-9.57-4-7.65-4-15.89,3.79-21.07C508.14,215.76,515,219.24,519.86,223.56Z" fill="#bcbec0"/>
<path d="M503.52,327.27H639.14L676,307.68v19.59h15.54a6.79,6.79,0,0,1,6.77,6.77v56a6.79,6.79,0,0,1-6.77,6.77h-188a6.79,6.79,0,0,1-6.77-6.77V334A6.79,6.79,0,0,1,503.52,327.27Z" fill="#bcbec0"/>
<rect x="517.23" y="343.07" width="158.84" height="4.38" fill="#ececec"/>
<rect x="517.23" y="360.49" width="158.84" height="4.38" fill="#ececec"/>
<rect x="517.23" y="377.91" width="158.84" height="4.38" fill="#ececec"/>
<path d="M691.49,433.41H555.87l-36.81-19.6v19.6H503.52a6.79,6.79,0,0,0-6.77,6.77v38.6a6.8,6.8,0,0,0,6.77,6.78h188a6.8,6.8,0,0,0,6.77-6.78v-38.6A6.79,6.79,0,0,0,691.49,433.41Z" fill="#bcbec0"/>
<rect x="518.94" y="453.3" width="79.86" height="4.38" fill="#ececec"/>
<rect x="518.94" y="466.16" width="116.97" height="4.38" fill="#ececec"/>
<g clip-path="url(#ea0d0951-aab2-46c7-83bd-7600f3406518)">
<path d="M691.16,253.28a74,74,0,0,0,9.61-5.43s-16-14.17-20.95-46.21-26.5-35.12-40.05-31.43c0,0-11.71-6.16-21.57.62s-26.5,17.87-23.41,35.74-9.86,53.6-17.26,51.76c0,0,4.64,1.06,12.27,2.28,2.67-1.59,7.92-5.27,10.62-10.84l-5,11.68c2.16.3,4.49.6,7,.88a14.84,14.84,0,0,0,1.77-4.69l.16-2a9.33,9.33,0,0,1-.16,2l-.37,4.85c18.24,2,43.28,3,66.08-2.07l.1-3.24.9,3c1.6-.38,3.19-.78,4.76-1.21l-3.94-9.12a36.37,36.37,0,0,0,6.14,8.49,96.57,96.57,0,0,0,9.89-3.52c-3.92-5.39-8.56-12.77-8.56-12.77A42.73,42.73,0,0,0,691.16,253.28Z" fill="#2f2e41" data-secondary="true"/>
<path d="M630.67,253.82s-9.68,5.46-15.31,12.34-8.32,13.53,2.35,31.92,7.5,23.76,7.5,23.76,29.39,7.5,40.65-1.25c0,0,1.46-32,12.3-47.89,0,0-4.75-21.47-26.12-20.17Z" fill="#0071f2" data-primary="true"/>
<path d="M652,252.53a9.84,9.84,0,0,1,4.23,0S649,263,641.73,262.23s-14.25-1.32-15.94-5.22l4-2.13Z" fill="#fff"/>
<path d="M632.61,242.17s0,9.71-1.94,11.65l3.42,3a9.82,9.82,0,0,0,12.7.12l5.25-4.38-7.12-16.84Z" fill="#f6b297"/>
<path d="M610.12,204.58a15.55,15.55,0,0,0-.27,8.58c2,8,6.54,28.1,25.28,38.05,10,5.3,26.29-27.23,26.29-27.23s9.19,0,10.13-7.52-9.8-9.41-9.8-.94c0,0-5.94-17.82-13-21.11-11.08-5.17-16.08-4.18-16.08-4.18s1.25-2.82,6.89-10.35c0,0-4.7,1.88-11.28,11.29C628.29,191.17,614,193.06,610.12,204.58Z" fill="#f9b499"/>
</g>
<path d="M218.27,171.19l3.12-8.91s8,9.27,23.64,14.86C245,177.14,236.84,180.92,218.27,171.19Z" fill="#f4a48e"/>
<path d="M237.65,71.59S226.94,84.77,217.78,86.7s-10.45,27.66-10.45,27.66l1.71,25.7s-45.13-26.65-21.09-74S245.27,40.4,245.27,40.4s32.32-22.19,53.06,12.54-10.61,48.23-10.61,48.23S249.23,93.78,237.65,71.59Z" fill="#2f2e41" data-secondary="true"/>
<path d="M273.1,126.39c0,5.62.36,10.16,4.2,10.16S287,132,287,126.39s-3.12-10.19-7-10.19S273.1,120.76,273.1,126.39Z" fill="#f6b297"/>
<path d="M248.42,70.43S240,68.75,221.21,77.5c-11.93,5.57-18.13,36.26-18.13,36.26,0-14.32-17.68-11.52-16.09,1.21s17.93,14.34,17.93,14.34,4.8,34.83,38.24,47.4c17.07,6.43,40.55-53.91,43.88-67.48a26.26,26.26,0,0,0-.46-14.52c-2.76-8.29-8.7-13.85-14.61-17.5a46.36,46.36,0,0,0-22.06-6.71Z" fill="#f9b499"/>
<polygon points="209.16 89.23 209.72 123.42 205.24 123.42 203.08 113.76 203.56 92.87 209.16 89.23" fill="#2f2e41" data-secondary="true"/>
<path d="M208,637.53l20.63,7.31,6.55-12.5,2.38,15.23,37.26,11.35a8.76,8.76,0,0,0,9.42-13.81L257.93,615,262,601.63l-35.66-10.25Z" fill="#0071f2" data-primary="true"/>
<path d="M166.28,663.68l21.83,1.61,3-13.79,6.31,14.06,38.93,1.12a8.76,8.76,0,0,0,5.44-15.81L208.53,628.8l.41-14-37.1-.48Z" fill="#0071f2" data-primary="true"/>
</svg>