 <!DOCTYPE svg PUBLIC "-//W3C//DTD SVG 1.1//EN" "http://www.w3.org/Graphics/SVG/1.1/DTD/svg11.dtd">
<svg id="bb0aa086-b499-4c8b-94da-1ae05ba49de4" data-name="Layer 1" xmlns="http://www.w3.org/2000/svg" width="865.76" height="682.89" viewBox="0 0 865.76 682.89">
<defs>
<style xmlns="http://www.w3.org/1999/xhtml">*, ::after, ::before { box-sizing: border-box; }
img, svg { vertical-align: middle; }
</style>
<style xmlns="http://www.w3.org/1999/xhtml">*, body, html { -webkit-font-smoothing: antialiased; }
img, svg { max-width: 100%; }
</style>
</defs>
<path d="M719.84,151.88c-4.35-2.47-8.65-5-12.94-7.59C660.8,116.43,445.35-9.9,359.51,9,263.13,30.2,78.63,364.27,137.82,455.38S471.58,692.79,539.51,661.65,774.29,328.07,781.22,256.19C787.14,194.81,735.16,160.58,719.84,151.88Z" fill="#e4e4e4"/>
<path d="M719.84,151.88c-4.35-2.47-8.65-5-12.94-7.59C660.8,116.43,445.35-9.9,359.51,9,263.13,30.2,78.63,364.27,137.82,455.38S471.58,692.79,539.51,661.65,774.29,328.07,781.22,256.19C787.14,194.81,735.16,160.58,719.84,151.88Z" fill="#e4e4e4" opacity="0.7"/>
<path d="M637.26,593.59s-1.85-10-8.51-16.67-14.82-7.4-20.75-9.26S596.15,561,596.15,561s7,16.3,11.48,21.85,10.37,9.26,14.08,10S637.26,593.59,637.26,593.59Z" fill="#bcbec0"/>
<path d="M648.38,532.84s0-9.26,3.7-13.7,23.34-10.74,23.34-10.74-5.56,11.48-13.34,17.78S648.38,532.84,648.38,532.84Z" fill="#bcbec0"/>
<path d="M643.19,540.62s-4.44-.37-5.93-12.22,5.56-33.71,5.56-33.71,7.41,17.78,6.3,28.89S646.9,534.33,643.19,540.62Z" fill="#bcbec0"/>
<path d="M649.12,572.48s.74-15.56,10.74-21.11a245.84,245.84,0,0,1,24.08-11.12s-4.08,13.71-9.63,19.64-11.12,13-16.3,14.81S649.12,572.48,649.12,572.48Z" fill="#bcbec0"/>
<path d="M634.67,546.55a48.69,48.69,0,0,0-15.19-19.63c-11.11-8.52-17.4-8.89-17.4-8.89s2.59,15.56,11.48,23.33S634.67,546.55,634.67,546.55Z" fill="#bcbec0"/>
<line x1="643.56" y1="619.89" x2="643.56" y2="529.51" fill="none" stroke="#d1d3d4" stroke-miterlimit="10"/>
<line x1="643.93" y1="599.15" x2="624.67" y2="581.74" fill="none" stroke="#d1d3d4" stroke-miterlimit="10"/>
<line x1="644.3" y1="578.04" x2="665.05" y2="559.14" fill="none" stroke="#d1d3d4" stroke-miterlimit="10"/>
<line x1="643.56" y1="553.59" x2="619.48" y2="536.18" fill="none" stroke="#d1d3d4" stroke-miterlimit="10"/>
<line x1="644.3" y1="536.92" x2="656.53" y2="525.07" fill="none" stroke="#d1d3d4" stroke-miterlimit="10"/>
<path d="M611.88,628.43S638.2,616,643.69,615.64s32.18,13.16,32.18,13.16Z" fill="#d1d3d4"/>
<path d="M250.86,593.59s-1.85-10-8.52-16.67-14.82-7.4-20.74-9.26S209.74,561,209.74,561s7,16.3,11.49,21.85,10.37,9.26,14.07,10S250.86,593.59,250.86,593.59Z" fill="#bcbec0"/>
<path d="M262,532.84s0-9.26,3.71-13.7S289,508.4,289,508.4s-5.55,11.48-13.33,17.78S262,532.84,262,532.84Z" fill="#bcbec0"/>
<path d="M256.79,540.62s-4.45-.37-5.93-12.22,5.56-33.71,5.56-33.71,7.4,17.78,6.29,28.89S260.49,534.33,256.79,540.62Z" fill="#bcbec0"/>
<path d="M262.71,572.48s.74-15.56,10.74-21.11a247,247,0,0,1,24.08-11.12s-4.07,13.71-9.63,19.64-11.11,13-16.3,14.81S262.71,572.48,262.71,572.48Z" fill="#bcbec0"/>
<path d="M248.27,546.55a48.8,48.8,0,0,0-15.19-19.63C222,518.4,215.67,518,215.67,518s2.59,15.56,11.48,23.33S248.27,546.55,248.27,546.55Z" fill="#bcbec0"/>
<line x1="257.16" y1="619.89" x2="257.16" y2="529.51" fill="none" stroke="#d1d3d4" stroke-miterlimit="10"/>
<line x1="257.53" y1="599.15" x2="238.26" y2="581.74" fill="none" stroke="#d1d3d4" stroke-miterlimit="10"/>
<line x1="257.9" y1="578.04" x2="278.64" y2="559.14" fill="none" stroke="#d1d3d4" stroke-miterlimit="10"/>
<line x1="257.16" y1="553.59" x2="233.08" y2="536.18" fill="none" stroke="#d1d3d4" stroke-miterlimit="10"/>
<line x1="257.9" y1="536.92" x2="270.12" y2="525.07" fill="none" stroke="#d1d3d4" stroke-miterlimit="10"/>
<path d="M225.47,628.43S251.8,616,257.28,615.64s32.18,13.16,32.18,13.16Z" fill="#d1d3d4"/>
<line x1="746.96" y1="628.75" x2="146.16" y2="628.75" fill="none" stroke="#2f2e41" stroke-miterlimit="10"/>
<path d="M337.37,78.11s-16.66-19.59-33.32-19.59-22.54,9.79-28.42,12.73-19.59-4.9-30.37-5.88S227.62,77.13,223.7,79.09s-12.74-3.92-22.54,0-9.79,8.82-13.71,8.82S174.71,83,167.85,83s-17.64,9.8-17.64,9.8H383.42s-4.9-9.8-18.62-12.74S351.09,83,337.37,78.11Z" fill="#e1e1e1"/>
<path d="M736.18,219.22s-10.47-12.32-20.94-12.32-14.17,6.16-17.86,8-12.32-3.08-19.1-3.69-11.09,7.39-13.55,8.62-8-2.46-14.16,0-6.16,5.55-8.63,5.55-8-3.08-12.32-3.08-11.08,6.15-11.08,6.15H765.13s-3.08-6.15-11.71-8S744.8,222.3,736.18,219.22Z" fill="#e1e1e1"/>
<path d="M283.7,222.58s-6.66-7.82-13.31-7.82-9,3.91-11.35,5.08-7.83-2-12.13-2.34-7,4.69-8.61,5.48-5.09-1.57-9,0-3.92,3.52-5.48,3.52-5.09-2-7.83-2-7,3.91-7,3.91h93.14a10.93,10.93,0,0,0-7.43-5.08C289.18,222.19,289.18,224.54,283.7,222.58Z" fill="#e1e1e1"/>
<path d="M548.18,282.32s6.06-5.18,6.56-20.22-14.63-25.4-14.63-25.4,2-10.37.51-18.67S523,203,523,203s1.51-9.33-1-17.63-14.13-10.88-14.13-10.88c-23.34-33.4-50.42-24.55-55.25-22.62-4.82-1.93-31.9-10.78-55.24,22.62,0,0-11.61,2.59-14.13,10.88s-1,17.63-1,17.63-16.14,6.74-17.66,15,.51,18.67.51,18.67-15.14,10.37-14.63,25.4S357,282.32,357,282.32s-9.08,5.7-9.08,13S356.46,313.94,364,316c7.14,2,80.35.22,88.54,0,8.2.2,81.41,1.94,88.55,0,7.57-2.08,16.15-13.48,16.15-20.74S548.18,282.32,548.18,282.32Z" fill="#2f2e41" data-secondary="true"/>
<path d="M409.57,272.51s-48.52,26.32-56.3,36.48,22.19,142,22.93,146.08,2.22,16.93,49.64,20.69,70.37-6.4,73.71-10.16a82.47,82.47,0,0,1,6.3-6.39s50-143.27,45.19-151.92-37-28.2-47-33.09-38.49-1.69-38.49-1.69Z" fill="#0071f2" data-primary="true"/>
<path d="M360.42,554.24s-8.21.88-12.56,4.6-7.53,16.75-7.53,16.75-14.1,30.89-17.21,37.72-1.24,13,.62,13.66,10.56.62,10.56.62h32.4s1.65-3.12.84-6c-1.12-3.91-4.61-8.2-2.82-11.43,3.11-5.59,15.32-25.58,10.35-40.48S360.42,554.24,360.42,554.24Z" fill="#2f2e41" data-secondary="true"/>
<path d="M534.88,554.24s8.21.88,12.56,4.6S555,575.59,555,575.59l17.2,37.72c3.1,6.83,1.24,13-.62,13.66s-10.56.62-10.56.62H528.6s-1.65-3.12-.83-6c1.11-3.91,4.61-8.2,2.81-11.43-3.11-5.59-15.32-25.58-10.35-40.48S534.88,554.24,534.88,554.24Z" fill="#2f2e41" data-secondary="true"/>
<path d="M373.76,628.74H523.27c1.21-2.31,17-27.1,18-56.92a318.27,318.27,0,0,0-5-64.47l-179.3,16.39s-4.08,21.86-1.11,51.86C358.64,604.07,369.78,625.09,373.76,628.74Z" fill="#2f2e41" data-secondary="true"/>
<path d="M373.76,628.74H523.27c1.21-2.31,17-27.1,18-56.92a318.27,318.27,0,0,0-5-64.47l-179.3,16.39s-4.08,21.86-1.11,51.86C358.64,604.07,369.78,625.09,373.76,628.74Z" opacity="0.2"/>
<path d="M393.24,281.49l14.07,141.87-23.7-8.15s-22.23,78.9-26.3,105.2,4.44,57.41,16.67,74.82,49.63,30,74.82,28.52,48.16-8.52,61.86-27.41,24.82-45.19,25.93-83.34-20.37-94.83-20.37-94.83l-25.15,5.56,29.07-140.35-10-5.79L500.66,340s-13.71,4.08-45.93,4.08-47.79-8.89-47.79-8.89L401,277.41Z" fill="#fff"/>
<path d="M444.73,548.19s-1.86-10-8.52-16.67-14.82-7.41-20.75-9.26-11.85-6.67-11.85-6.67,7,16.3,11.48,21.86,10.38,9.26,14.08,10S444.73,548.19,444.73,548.19Z" fill="#bcbec0"/>
<path d="M455.84,487.44s0-9.26,3.7-13.71S482.88,463,482.88,463s-5.56,11.49-13.33,17.78S455.84,487.44,455.84,487.44Z" fill="#bcbec0"/>
<path d="M450.65,495.22s-4.44-.37-5.92-12.22,5.55-33.71,5.55-33.71,7.41,17.78,6.3,28.89S454.36,488.92,450.65,495.22Z" fill="#bcbec0"/>
<path d="M456.58,527.08s.74-15.56,10.74-21.12a244.64,244.64,0,0,1,24.08-11.11s-4.07,13.7-9.63,19.63-11.11,13-16.3,14.82S456.58,527.08,456.58,527.08Z" fill="#bcbec0"/>
<path d="M442.13,501.15A48.71,48.71,0,0,0,427,481.51c-11.12-8.52-17.41-8.89-17.41-8.89S412.13,488.18,421,496,442.13,501.15,442.13,501.15Z" fill="#bcbec0"/>
<line x1="451.02" y1="574.49" x2="451.02" y2="484.11" fill="none" stroke="#d1d3d4" stroke-miterlimit="10"/>
<line x1="451.39" y1="553.75" x2="432.13" y2="536.34" fill="none" stroke="#d1d3d4" stroke-miterlimit="10"/>
<line x1="451.77" y1="532.63" x2="472.51" y2="513.74" fill="none" stroke="#d1d3d4" stroke-miterlimit="10"/>
<line x1="451.02" y1="508.18" x2="426.95" y2="490.77" fill="none" stroke="#d1d3d4" stroke-miterlimit="10"/>
<line x1="451.77" y1="491.51" x2="463.99" y2="479.66" fill="none" stroke="#d1d3d4" stroke-miterlimit="10"/>
<path d="M537.35,630.78S492.1,600.21,487,594.12s-13.59-13-21.2-16.09-13.18-7.1-27.89,0-16,16.8-19.14,19.05S370,631.79,370,631.79l-14.7,5.58s22.31-1,27.89-2,18.77-1,18.77-1-13.7,6.09-6.09,6.59,21.81-5.07,25.36-5.58,6.09-.5,18.26,3,14.2,5.07,15.72,4.06,5.07-5.58,5.07-5.58-8.62,1.52,17.25,4.56,24.85-4.56,24.85-4.56,9.13,0,17.75-.51,12.68,2.53,21.3,2.53S537.35,630.78,537.35,630.78Z" fill="#d1d3d4"/>
<path d="M465.84,314.45l-5.18,107.06,24.81-2.6,4.45-128.16S481,312.23,465.84,314.45Z" fill="#2f2e41" data-secondary="true"/>
<path d="M420.28,259.63s-5.19,4.82-4.82,7.41-3,4.08-1.11,10.74S434,322.6,438.8,325.94s18.15,7.41,24.82,2.59,25.56-29.26,27.78-41.86,3.33-19.63-3.33-27.78l-6.67-8.15s-2.22,12.6-21.12,18.89S420.28,259.63,420.28,259.63Z" fill="#2f2e41" data-secondary="true"/>
<g opacity="0.2">
<path d="M465.84,314.45l-5.18,107.06,24.81-2.6,4.45-128.16S481,312.23,465.84,314.45Z"/>
<path d="M420.28,259.63s-5.19,4.82-4.82,7.41-3,4.08-1.11,10.74S434,322.6,438.8,325.94s18.15,7.41,24.82,2.59,25.56-29.26,27.78-41.86,3.33-19.63-3.33-27.78l-6.67-8.15s-2.22,12.6-21.12,18.89S420.28,259.63,420.28,259.63Z"/>
</g>
<path d="M429.91,271.49s20.74,37.41,26.3,34.44,15.93-37.78,15.93-37.78Z" fill="#f9b499"/>
<path d="M390.28,285.19s-47,26.67-49.64,38.9S350.27,410,350.27,410l-.37,57.05s13.33-7,24.45-7,18.89.37,18.89.37-7-47.41-7-48.9.37-80.38.37-80.38" fill="#5ae4a7"/>
<path d="M390.28,285.19s-47,26.67-49.64,38.9S350.27,410,350.27,410l-.37,57.05s13.33-7,24.45-7,18.89.37,18.89.37-7-47.41-7-48.9.37-80.38.37-80.38" fill="#0071f2" data-primary="true"/>
<path d="M367.31,448.55S352.49,456,348.42,460s-5.19,5.56-4.08,7,3.34,25.19,6.3,27.78,12.59,7,28.52,1.85,20-10.74,20.75-14.45-1.11-6.66-3-17.78S390.28,444.1,367.31,448.55Z" fill="#2f2e41" data-secondary="true"/>
<path d="M522.55,286.11s38.29,19.08,40.89,31.31S549.26,410,549.26,410l.37,57.05s-13.33-7-24.45-7-18.89.37-18.89.37,7-47.41,7-48.9-.37-80.38-.37-80.38" fill="#0071f2" data-primary="true"/>
<path d="M532.22,448.55s9,1,18.89,11.48c4,4.19,5.19,5.56,4.08,7s-3.34,25.19-6.3,27.78-12.59,7-28.52,1.85-20-10.74-20.74-14.45,1.11-6.66,3-17.78S509.26,444.1,532.22,448.55Z" fill="#2f2e41" data-secondary="true"/>
<circle cx="648.96" cy="91.84" r="47.05" fill="#d1d3d4"/>
<line x1="648.96" y1="155.52" x2="648.96" y2="178.06" fill="none" stroke="#d1d3d4" stroke-miterlimit="10"/>
<line x1="648.96" y1="4.62" x2="648.96" y2="27.16" fill="none" stroke="#d1d3d4" stroke-miterlimit="10"/>
<line x1="713.15" y1="91.34" x2="735.68" y2="91.34" fill="none" stroke="#d1d3d4" stroke-miterlimit="10"/>
<line x1="562.25" y1="91.34" x2="584.78" y2="91.34" fill="none" stroke="#d1d3d4" stroke-miterlimit="10"/>
<line x1="694.35" y1="45.96" x2="710.28" y2="30.02" fill="none" stroke="#d1d3d4" stroke-miterlimit="10"/>
<line x1="587.64" y1="152.66" x2="603.58" y2="136.73" fill="none" stroke="#d1d3d4" stroke-miterlimit="10"/>
<line x1="603.58" y1="45.96" x2="587.64" y2="30.02" fill="none" stroke="#d1d3d4" stroke-miterlimit="10"/>
<line x1="710.28" y1="152.66" x2="694.35" y2="136.73" fill="none" stroke="#d1d3d4" stroke-miterlimit="10"/>
<path d="M424.93,594.94c-1.77-4.11-13.89-14.43-13.89-14.43l-2-9-16.55-90s-6.67-2.22-19.63-.74-15.19,8.52-15.19,8.52,30.74,81.71,35.56,92.45l.08,0c.75,2.43,2.93,9.4,3.49,10.9l5.7,11.2s8.74,9.69,15.61,5.15S426.69,599.05,424.93,594.94Z" fill="#f9b499"/>
<path d="M541.5,488.51c-1-1.88-4.53-6.56-14.83-7.74-9.77-1.11-16-.13-18.42.43a1.8,1.8,0,0,0-1.4,1.51l-15.18,95.23h0l-2,9s-12.13,10.32-13.89,14.43-.06,9.46,6.81,14,15.6-5.15,15.6-5.15l5.7-11.2c.69-1.82,3.33-17.33,3.33-17.33h0c6.55-16,32.06-85.48,34.37-91.75A1.82,1.82,0,0,0,541.5,488.51Z" fill="#f9b499"/>
<path d="M438.6,286.11l-7.16-11.93,39-.6-3.93,11.61S453.86,298.94,438.6,286.11Z" fill="#f4a48e"/>
<path d="M492.88,214.16s.48-10.36,6.62-6.71-.94,20-4.08,23.7a26.09,26.09,0,0,1-8.34,6l4.17-20Z" fill="#f9b499"/>
<path d="M403.64,210a91.59,91.59,0,0,1-3.59-10.33c-1.26-4.8,18.8-44.9,29.63-46.46s62.76,29.49,62.76,29.49L495,207.05s-8.57,56-31.24,73.1c-4.13,3.11-13.94,9.36-23.46,2C407.05,256.57,403.64,210,403.64,210" fill="#f9b499"/>
<path d="M436,168.66s-2.47,5.19-5.83,13.73-11.93,17.1-16.84,19a55.55,55.55,0,0,1-9.77,2.66s3.06,5.9.09,5.92-5.57-7.73-5.57-7.73-9.91-25.81-3.74-46.57a40.34,40.34,0,0,1,24.6-26.45s9.57-14.13,36.49-11,40.5,14.12,49.92,42.53-4.67,44-6.61,45.91-.66,6.29-2.57,7.42-4.23-4.78-4.23-4.78-13.53-4-24.29-11.65S444.32,173,441.52,169.35,436,168.66,436,168.66Z" fill="#2f2e41" data-secondary="true"/>
<path d="M403.64,210s-4.17-5.89-7.38-.69-1.76,13.7,1.34,18.86,12,8.54,12,8.54Z" fill="#f9b499"/>
</svg>